<svg width="214" height="95" viewBox="0 0 214 95" fill="none" xmlns="http://www.w3.org/2000/svg">
<path id="Vector" d="M36.7017 0.258092C48.4714 1.68976 61.6353 9.30068 72.2108 20.7975L76.8346 25.8088L79.5146 24.647C85.7538 21.9636 98.4799 21.0465 109.712 22.5587C123.681 24.3455 135.345 28.3025 155.001 38.0594C176.732 48.7983 185.921 51.6806 196.163 51.0597C204.555 50.5638 208.571 47.3766 210.317 39.8146C211.187 36.1861 211.164 34.9728 210.303 29.3981C209.433 24.1289 208.943 22.3772 207.132 18.8458C205.893 16.5217 204.151 13.4364 203.169 12.0625C200.211 7.86642 201.905 6.01577 205.128 9.79191C208.712 14.1223 211.573 20.5383 212.887 27.262C214.462 35.3155 214.253 39.3014 211.955 44.3604C209.289 50.2352 206.209 52.3696 198.63 53.5039C187.708 55.0633 176.838 51.9761 153.94 40.8039C138.829 33.4084 132.323 30.8083 122.446 28.1045C107.055 23.8692 89.1893 23.1983 81.8358 26.5047C80.2506 27.2745 78.9335 28.004 78.9677 28.2271C78.9911 28.3757 80.6981 31.2381 82.7005 34.5885C91.2551 48.6694 94.9889 61.7989 93.3764 72.0026C91.0133 86.9585 78.2599 88.4113 69.1067 74.7242C59.3189 60.1435 60.2987 40.1485 71.2778 30.063C72.7177 28.7067 73.8778 27.3162 73.8437 27.0932C73.6711 25.9783 62.2738 15.2129 58.3821 12.4494C52.8213 8.49113 45.5214 5.02131 39.5756 3.55413C35.5182 2.56466 33.3647 2.50689 28.3548 3.18103C19.2601 4.46683 13.5804 8.28318 10.1186 15.4177C6.34974 23.0547 6.24738 30.2187 9.57367 45.6909C10.7572 51.2171 11.8529 56.5286 11.9914 57.4201C12.2439 59.0563 12.47 59.0975 15.3498 58.5151C18.5514 57.8827 21.2079 58.7022 21.0607 60.2453C21.0344 60.7817 20.5538 61.2337 19.963 61.322C17.867 61.6358 15.2377 79.1404 15.9211 88.5447C16.4398 96.5279 14.2941 96.1651 10.6041 87.5918C7.34412 80.0184 2.06805 66.5116 0.998609 62.7931L0.197266 60.0994L4.60372 59.4392L9.01117 58.7789L6.64804 45.9768C5.16915 37.8328 4.33466 31.7218 4.2674 29.1463C4.09679 12.7453 12.2663 2.62425 27.3496 0.59377C30.4673 0.12691 34.6866 0.0274928 36.7017 0.258092ZM71.852 33.7795C62.965 44.2361 63.4105 62.4207 72.8415 74.6973C78.14 81.5855 83.1109 83.5028 86.7901 79.91C93.4027 73.5956 91.5212 57.1466 82.1916 39.8361C77.9489 31.9539 76.161 29.636 75.0165 30.4157C74.5788 30.7854 73.1077 32.2986 71.852 33.7795ZM4.31028 63.5896C4.56375 64.1606 5.29297 66.0289 5.89057 67.764C7.37434 72.0285 12.3258 84.14 12.5402 84.1074C12.6484 84.0911 12.8337 82.0864 12.9497 79.6355C13.0774 77.2585 13.6857 72.3001 14.3399 68.7044C14.9404 65.1163 15.459 62.0724 15.4366 61.9237C15.3791 61.5523 11.6667 61.7279 7.55859 62.1904C4.52573 62.4927 3.96908 62.8046 4.31028 63.5896Z" fill="#F4B616"/>
</svg>
