<svg width="206" height="89" viewBox="0 0 206 89" fill="none" xmlns="http://www.w3.org/2000/svg">
<path id="Vector" fill-rule="evenodd" clip-rule="evenodd" d="M50.3369 20.592L50.4578 20.6716C50.953 21.0296 51.4473 21.4038 51.81 21.613C56.7575 24.4545 61.0148 29.2718 64.5205 33.6621C72.9044 44.172 81.8607 54.2366 90.9992 64.1198C93.5592 66.8893 96.4625 69.3478 99.196 71.9446C100.006 72.7113 100.825 73.4627 101.644 74.217C102.005 74.5423 102.577 75.3993 102.949 75.7726C103.214 76.0432 103.479 76.1775 103.652 76.2322C104.095 76.3618 104.451 76.2562 104.734 76.0259C104.921 75.8791 105.179 75.5998 105.186 75.0327C105.238 69.0686 102.492 61.1776 98.7349 52.9104C93.217 40.7663 85.5496 27.7825 81.8987 19.0364C80.9394 16.7352 78.1668 12.3804 76.2551 8.38549C75.4031 6.61593 74.6992 4.93468 74.4945 3.59024C75.2373 4.40785 76.0669 5.51142 76.6373 6.05073C79.1018 8.38071 81.1919 11.0763 83.5092 13.5397C90.5556 21.0372 116.461 39.4247 125.37 44.8044C132.575 49.1582 175.954 70.0906 203.95 72.4369C204.551 72.4868 205.08 72.0502 205.131 71.4581C205.181 70.866 204.734 70.3459 204.136 70.296C176.477 67.9775 133.629 47.2754 126.511 42.9744C117.701 37.6523 92.0755 19.4932 85.1139 12.0839C82.7663 9.58503 80.6421 6.86257 78.1474 4.50284C77.2475 3.65165 75.7043 1.54623 74.7655 0.934951C74.2352 0.589484 73.7419 0.550122 73.387 0.647045C72.9522 0.766998 72.4833 1.08079 72.3312 1.90703C72.0865 3.2601 72.5242 5.1765 73.386 7.2992C75.1847 11.7173 78.7654 17.1795 79.8826 19.8521C83.5385 28.6126 91.2137 41.6222 96.7442 53.7875C99.8229 60.5672 102.248 67.0687 102.855 72.388C102.134 71.7297 101.423 71.0675 100.711 70.3958C98.0067 67.8345 95.1434 65.4115 92.6126 62.6765C83.5131 52.8288 74.5861 42.8026 66.2362 32.3369C62.5687 27.7412 58.0833 22.73 52.9125 19.7561C52.1824 19.3377 50.8946 18.2601 50.1566 18.0317C49.6837 17.8849 49.2811 17.9415 48.9857 18.0912C48.6192 18.2687 48.2858 18.5969 48.2205 19.2495C47.9446 21.9172 48.6757 26.439 49.9509 31.7237C52.8521 43.7267 58.5025 59.7794 60.5361 66.4411C61.9019 70.9149 63.4598 75.358 64.6804 79.873C64.7408 80.0976 65.5402 84.4706 65.9184 86.553C64.7008 86.1135 63.063 85.222 61.2117 84.129C54.7093 80.2828 45.8983 73.6978 43.1998 71.7335C38.0222 67.9679 32.9558 64.0804 27.6885 60.4339C19.3766 54.679 10.8844 49.2004 2.635 43.3563C2.14854 43.008 1.46516 43.1193 1.11517 43.5981C0.760317 44.0808 0.874362 44.7535 1.36083 45.098C9.61417 50.9508 18.1151 56.4341 26.4358 62.1938C31.6855 65.827 36.7383 69.7058 41.9032 73.4618C44.628 75.4444 53.5248 82.0869 60.0886 85.9686C63.0961 87.7497 65.6747 88.9252 67.0571 88.9991C67.4412 89.0154 68.2221 88.8235 68.2952 87.7804C68.3868 86.4465 66.8758 79.6399 66.7909 79.3203C65.5616 74.7841 63.996 70.319 62.6263 65.8231C60.6015 59.1835 54.9676 43.1874 52.0781 31.2275C51.0369 26.9227 50.3389 23.158 50.3369 20.592Z" fill="#F4B616"/>
</svg>
