<svg width="90" height="202" viewBox="0 0 90 202" fill="none" xmlns="http://www.w3.org/2000/svg">
<path id="Vector" fill-rule="evenodd" clip-rule="evenodd" d="M69.2384 48.1862L69.1604 48.3065C68.8065 48.8007 68.4361 49.2948 68.2304 49.6557C65.4413 54.5797 60.6312 58.8636 56.2394 62.3999C45.7282 70.8561 35.6801 79.8661 25.8202 89.0526C23.0564 91.6263 20.6172 94.5311 18.0328 97.2718C17.2685 98.0846 16.5227 98.9051 15.771 99.7256C15.4484 100.086 14.5885 100.667 14.2181 101.04C13.9471 101.307 13.8164 101.569 13.7638 101.741C13.6419 102.179 13.755 102.527 13.9948 102.802C14.1479 102.983 14.4355 103.232 15.0116 103.227C21.0705 103.163 29.0324 100.305 37.3569 96.4475C49.5829 90.7799 62.6209 82.981 71.4348 79.2174C73.7521 78.2289 78.1215 75.4143 82.1419 73.4557C83.923 72.5834 85.6164 71.857 86.9783 71.6296C86.1623 72.3771 85.0578 73.2149 84.5206 73.7859C82.2033 76.2569 79.5059 78.3662 77.0482 80.6952C69.5709 87.7763 51.3991 113.63 46.1084 122.502C41.8267 129.678 21.4107 172.779 19.5731 200.377C19.5341 200.97 19.9884 201.481 20.5909 201.52C21.1924 201.559 21.712 201.108 21.7519 200.518C23.5672 173.251 43.7599 130.679 47.9899 123.59C53.2231 114.816 71.1687 89.2416 78.5583 82.2469C81.0511 79.8872 83.7749 77.7434 86.1234 75.2426C86.9696 74.3405 89.0782 72.7811 89.6807 71.8445C90.0209 71.3158 90.0512 70.8302 89.9469 70.4818C89.8153 70.0567 89.4886 69.6009 88.6454 69.4675C87.2669 69.2535 85.3288 69.7218 83.1899 70.6104C78.7367 72.4673 73.2588 76.0976 70.5662 77.2492C61.7396 81.0176 48.6753 88.8252 36.4269 94.5052C29.5998 97.6672 23.0436 100.181 17.6526 100.881C18.3077 100.159 18.9667 99.4463 19.6345 98.7333C22.1838 96.0214 24.5889 93.156 27.3166 90.612C37.1424 81.4648 47.1515 72.4846 57.6188 64.0629C62.2154 60.3635 67.2175 55.8513 70.1382 50.704C70.5486 49.9779 71.6181 48.6889 71.8365 47.9585C71.9759 47.4901 71.9106 47.0948 71.7526 46.8069C71.5655 46.4503 71.2252 46.128 70.5613 46.0765C67.8463 45.8573 63.2672 46.6651 57.9249 48.0229C45.7896 51.1122 29.5958 56.9856 22.8692 59.117C18.3516 60.5478 13.8681 62.1676 9.30662 63.4564C9.08044 63.5217 4.65351 64.394 2.54582 64.8056C2.96892 63.5984 3.84238 61.9699 4.91572 60.1265C8.69631 53.6517 15.2125 44.8519 17.1554 42.1578C20.8785 36.9889 24.7283 31.9273 28.3295 26.6724C34.013 18.3797 39.4129 9.91514 45.1871 1.68258C45.5322 1.19701 45.4055 0.526706 44.9122 0.191603C44.415 -0.147818 43.7336 -0.0232564 43.3934 0.46222C37.6094 8.6991 32.2056 17.1722 26.5182 25.4736C22.9306 30.7113 19.0886 35.76 15.3743 40.9161C13.4148 43.6358 6.84115 52.5216 3.02546 59.0575C1.27555 62.0515 0.132011 64.6128 0.0832673 65.9745C0.0744933 66.3526 0.284099 67.1174 1.34477 67.1692C2.70278 67.2335 9.58639 65.6136 9.90907 65.5234C14.493 64.226 18.9969 62.5975 23.5369 61.1619C30.2412 59.0402 46.3794 53.1833 58.4699 50.1068C62.8227 48.9982 66.6326 48.2377 69.2384 48.1862Z" fill="#F4B616"/>
</svg>
