<svg width="602" height="373" viewBox="0 0 602 373" fill="none" xmlns="http://www.w3.org/2000/svg">
<g filter="url(#filter0_d_0_1)">
<mask id="mask0_0_1" style="mask-type:luminance" maskUnits="userSpaceOnUse" x="26" y="26" width="550" height="321">
<path d="M556.806 26.2732H45.298C34.6977 26.2732 26.1045 34.8684 26.1045 45.4711V327.681C26.1045 338.283 34.6977 346.878 45.298 346.878H556.806C567.406 346.878 576 338.283 576 327.681V45.4711C576 34.8684 567.406 26.2732 556.806 26.2732Z" fill="white"/>
</mask>
<g mask="url(#mask0_0_1)">
<path d="M556.806 26.2732H45.298C34.6977 26.2732 26.1045 34.8684 26.1045 45.4711V327.681C26.1045 338.283 34.6977 346.878 45.298 346.878H556.806C567.406 346.878 576 338.283 576 327.681V45.4711C576 34.8684 567.406 26.2732 556.806 26.2732Z" fill="#E4E3FF"/>
<path d="M121.855 74.268H118.863L118.883 72.7226H121.855C122.878 72.7226 123.731 72.5095 124.413 72.0833C125.095 71.6494 125.607 71.0466 125.949 70.272C126.296 69.4906 126.47 68.5787 126.47 67.5353V66.6599C126.47 65.8392 126.371 65.1106 126.174 64.4742C125.977 63.8311 125.689 63.2897 125.309 62.8501C124.928 62.4047 124.462 62.0668 123.911 61.8364C123.367 61.607 122.74 61.4918 122.032 61.4918H118.804V59.9368H122.032C122.97 59.9368 123.826 60.0942 124.6 60.409C125.374 60.7181 126.04 61.1674 126.597 61.7577C127.162 62.3423 127.594 63.0507 127.897 63.8839C128.198 64.7103 128.35 65.6424 128.35 66.6791V67.5353C128.35 68.572 128.198 69.5079 127.897 70.3411C127.594 71.1676 127.159 71.8731 126.588 72.4567C126.023 73.0413 125.341 73.4905 124.541 73.8054C123.747 74.1135 122.852 74.268 121.855 74.268ZM119.877 59.9368V74.268H117.978V59.9368H119.877ZM130.043 69.0615V68.835C130.043 68.0671 130.154 67.3549 130.377 66.6992C130.6 66.036 130.922 65.4619 131.341 64.9762C131.761 64.4848 132.269 64.1037 132.866 63.8349C133.464 63.5594 134.133 63.4212 134.874 63.4212C135.622 63.4212 136.294 63.5594 136.891 63.8349C137.494 64.1037 138.006 64.4848 138.426 64.9762C138.852 65.4619 139.178 66.036 139.4 66.6992C139.623 67.3549 139.735 68.0671 139.735 68.835V69.0615C139.735 69.8285 139.623 70.5407 139.4 71.1973C139.178 71.8529 138.852 72.4279 138.426 72.9194C138.006 73.4051 137.498 73.7862 136.901 74.0616C136.31 74.3304 135.641 74.4648 134.894 74.4648C134.145 74.4648 133.473 74.3304 132.877 74.0616C132.28 73.7862 131.767 73.4051 131.341 72.9194C130.922 72.4279 130.6 71.8529 130.377 71.1973C130.154 70.5407 130.043 69.8285 130.043 69.0615ZM131.863 68.835V69.0615C131.863 69.5924 131.925 70.0944 132.049 70.5676C132.174 71.0332 132.361 71.4469 132.611 71.8078C132.866 72.1678 133.185 72.4538 133.566 72.664C133.946 72.8675 134.388 72.9683 134.894 72.9683C135.392 72.9683 135.828 72.8675 136.203 72.664C136.583 72.4538 136.898 72.1678 137.147 71.8078C137.397 71.4469 137.584 71.0332 137.708 70.5676C137.839 70.0944 137.904 69.5924 137.904 69.0615V68.835C137.904 68.3099 137.839 67.8146 137.708 67.3491C137.584 66.8759 137.393 66.4593 137.137 66.0983C136.888 65.7307 136.573 65.4427 136.192 65.2325C135.819 65.0223 135.379 64.9177 134.874 64.9177C134.376 64.9177 133.936 65.0223 133.555 65.2325C133.182 65.4427 132.866 65.7307 132.611 66.0983C132.361 66.4593 132.174 66.8759 132.049 67.3491C131.925 67.8146 131.863 68.3099 131.863 68.835ZM149.203 73.1661L152.164 63.618H154.112L149.842 75.9114C149.744 76.1744 149.612 76.4566 149.448 76.758C149.291 77.0671 149.087 77.3589 148.838 77.6344C148.589 77.9099 148.287 78.1326 147.933 78.3034C147.586 78.481 147.169 78.5693 146.683 78.5693C146.538 78.5693 146.355 78.5492 146.133 78.5098C145.909 78.4704 145.752 78.4378 145.659 78.4119L145.65 76.9356C145.703 76.9423 145.784 76.948 145.896 76.9548C146.015 76.9682 146.096 76.9749 146.142 76.9749C146.555 76.9749 146.906 76.9192 147.195 76.8079C147.484 76.7023 147.727 76.5219 147.923 76.2665C148.127 76.017 148.3 75.6724 148.444 75.2327L149.203 73.1661ZM147.028 63.618L149.793 71.8865L150.265 73.8054L148.956 74.4744L145.039 63.618H147.028ZM154.713 69.0615V68.835C154.713 68.0671 154.825 67.3549 155.048 66.6992C155.271 66.036 155.592 65.4619 156.012 64.9762C156.432 64.4848 156.94 64.1037 157.537 63.8349C158.134 63.5594 158.804 63.4212 159.545 63.4212C160.293 63.4212 160.965 63.5594 161.562 63.8349C162.166 64.1037 162.677 64.4848 163.098 64.9762C163.524 65.4619 163.848 66.036 164.072 66.6992C164.294 67.3549 164.406 68.0671 164.406 68.835V69.0615C164.406 69.8285 164.294 70.5407 164.072 71.1973C163.848 71.8529 163.524 72.4279 163.098 72.9194C162.677 73.4051 162.169 73.7862 161.572 74.0616C160.982 74.3304 160.313 74.4648 159.565 74.4648C158.817 74.4648 158.145 74.3304 157.548 74.0616C156.95 73.7862 156.439 73.4051 156.012 72.9194C155.592 72.4279 155.271 71.8529 155.048 71.1973C154.825 70.5407 154.713 69.8285 154.713 69.0615ZM156.534 68.835V69.0615C156.534 69.5924 156.596 70.0944 156.721 70.5676C156.845 71.0332 157.033 71.4469 157.282 71.8078C157.537 72.1678 157.856 72.4538 158.236 72.664C158.617 72.8675 159.059 72.9683 159.565 72.9683C160.063 72.9683 160.5 72.8675 160.873 72.664C161.254 72.4538 161.569 72.1678 161.818 71.8078C162.067 71.4469 162.254 71.0332 162.379 70.5676C162.51 70.0944 162.576 69.5924 162.576 69.0615V68.835C162.576 68.3099 162.51 67.8146 162.379 67.3491C162.254 66.8759 162.064 66.4593 161.808 66.0983C161.559 65.7307 161.245 65.4427 160.864 65.2325C160.489 65.0223 160.05 64.9177 159.545 64.9177C159.047 64.9177 158.607 65.0223 158.226 65.2325C157.852 65.4427 157.537 65.7307 157.282 66.0983C157.033 66.4593 156.845 66.8759 156.721 67.3491C156.596 67.8146 156.534 68.3099 156.534 68.835ZM172.8 71.8078V63.618H174.631V74.268H172.889L172.8 71.8078ZM173.145 69.5636L173.903 69.5434C173.903 70.2518 173.827 70.9084 173.676 71.5122C173.532 72.1092 173.296 72.6276 172.968 73.0672C172.64 73.5068 172.21 73.8514 171.679 74.101C171.147 74.3439 170.501 74.4648 169.741 74.4648C169.221 74.4648 168.746 74.389 168.314 74.2383C167.887 74.0876 167.52 73.8543 167.211 73.5395C166.903 73.2246 166.663 72.8147 166.493 72.3089C166.329 71.804 166.246 71.1973 166.246 70.4879V63.618H168.067V70.5081C168.067 70.9871 168.12 71.3845 168.224 71.6993C168.337 72.0075 168.483 72.2532 168.668 72.4375C168.858 72.6141 169.068 72.7389 169.297 72.8109C169.533 72.8838 169.776 72.9194 170.026 72.9194C170.8 72.9194 171.413 72.7715 171.865 72.4769C172.318 72.1745 172.643 71.7713 172.839 71.2664C173.043 70.7538 173.145 70.1865 173.145 69.5636ZM183.419 59.1497V74.268H181.598V59.1497H183.419ZM182.986 68.5394L182.229 68.5096C182.235 67.782 182.343 67.1091 182.553 66.4919C182.763 65.8689 183.058 65.3275 183.439 64.8687C183.819 64.4089 184.272 64.0547 184.797 63.8052C185.329 63.5489 185.915 63.4212 186.558 63.4212C187.083 63.4212 187.555 63.4932 187.975 63.6381C188.395 63.7754 188.753 63.9991 189.047 64.3072C189.35 64.6153 189.579 65.0156 189.736 65.508C189.894 65.9937 189.973 66.5879 189.973 67.2896V74.268H188.142V67.2694C188.142 66.7117 188.061 66.2663 187.897 65.9313C187.733 65.5896 187.493 65.3439 187.178 65.1932C186.863 65.0357 186.476 64.957 186.017 64.957C185.565 64.957 185.151 65.0521 184.777 65.2421C184.409 65.4322 184.092 65.6952 183.823 66.0292C183.56 66.3642 183.354 66.7482 183.203 67.1811C183.058 67.6083 182.986 68.0604 182.986 68.5394ZM198.574 72.4471V66.9651C198.574 66.5447 198.489 66.1809 198.318 65.8718C198.154 65.557 197.904 65.3141 197.57 65.1442C197.235 64.9733 196.822 64.8879 196.33 64.8879C195.871 64.8879 195.468 64.9666 195.12 65.124C194.779 65.2815 194.51 65.4888 194.313 65.7441C194.122 66.0004 194.027 66.2759 194.027 66.5706H192.207C192.207 66.1905 192.306 65.8133 192.502 65.4389C192.699 65.0655 192.981 64.7276 193.349 64.4252C193.723 64.1171 194.168 63.8743 194.686 63.6967C195.211 63.5133 195.796 63.4212 196.439 63.4212C197.212 63.4212 197.895 63.5527 198.485 63.8148C199.082 64.0778 199.548 64.4742 199.882 65.006C200.224 65.531 200.395 66.1905 200.395 66.9843V71.9451C200.395 72.2993 200.423 72.6765 200.483 73.0768C200.548 73.4771 200.643 73.8217 200.768 74.1106V74.268H198.869C198.778 74.0578 198.705 73.7794 198.653 73.431C198.6 73.0768 198.574 72.7485 198.574 72.4471ZM198.889 67.8108L198.908 69.0903H197.068C196.55 69.0903 196.088 69.1335 195.681 69.219C195.274 69.2977 194.933 69.4186 194.658 69.5828C194.382 69.7469 194.172 69.9533 194.027 70.2029C193.883 70.4457 193.811 70.7308 193.811 71.0591C193.811 71.3941 193.886 71.6993 194.038 71.9748C194.188 72.2503 194.415 72.4701 194.716 72.6343C195.024 72.7917 195.402 72.8704 195.848 72.8704C196.405 72.8704 196.898 72.7523 197.324 72.5162C197.751 72.2801 198.089 71.9911 198.338 71.6494C198.593 71.3087 198.731 70.9775 198.751 70.6559L199.528 71.5314C199.482 71.8078 199.358 72.1121 199.155 72.4471C198.951 72.7821 198.679 73.1037 198.338 73.4118C198.003 73.7132 197.603 73.9666 197.137 74.1692C196.678 74.3669 196.16 74.4648 195.582 74.4648C194.861 74.4648 194.228 74.3237 193.683 74.0415C193.145 73.7593 192.725 73.382 192.424 72.9098C192.128 72.4308 191.981 71.8961 191.981 71.3058C191.981 70.7346 192.092 70.2326 192.315 69.7997C192.539 69.3601 192.86 68.9953 193.28 68.7073C193.7 68.4117 194.205 68.189 194.795 68.0373C195.385 67.8866 196.044 67.8108 196.773 67.8108H198.889ZM205.935 72.6247L208.847 63.618H210.707L206.879 74.268H205.659L205.935 72.6247ZM203.504 63.618L206.506 72.6736L206.712 74.268H205.492L201.635 63.618H203.504ZM216.337 74.4648C215.595 74.4648 214.923 74.34 214.32 74.0904C213.723 73.8351 213.207 73.4771 212.774 73.0182C212.348 72.5584 212.02 72.0142 211.791 71.3845C211.56 70.7538 211.446 70.0656 211.446 69.3169V68.9041C211.446 68.0373 211.574 67.2665 211.83 66.5908C212.085 65.9083 212.433 65.3304 212.872 64.8582C213.312 64.3859 213.811 64.0288 214.368 63.786C214.926 63.5431 215.504 63.4212 216.101 63.4212C216.862 63.4212 217.517 63.5527 218.068 63.8148C218.627 64.0778 219.082 64.4454 219.437 64.9177C219.791 65.3832 220.053 65.9342 220.223 66.5706C220.394 67.2013 220.48 67.8895 220.48 68.6382V69.4551H212.529V67.9692H218.659V67.831C218.632 67.3587 218.534 66.8989 218.364 66.4525C218.2 66.0072 217.938 65.6395 217.577 65.3506C217.216 65.0617 216.724 64.9177 216.101 64.9177C215.687 64.9177 215.307 65.006 214.959 65.1836C214.611 65.3535 214.313 65.6098 214.063 65.9505C213.814 66.2923 213.621 66.7088 213.483 67.2013C213.345 67.6927 213.276 68.261 213.276 68.9041V69.3169C213.276 69.8227 213.345 70.2979 213.483 70.7442C213.628 71.1839 213.834 71.5707 214.103 71.9057C214.378 72.2407 214.709 72.5028 215.097 72.6928C215.49 72.8838 215.937 72.9789 216.435 72.9789C217.078 72.9789 217.623 72.8474 218.068 72.5853C218.514 72.3223 218.905 71.971 219.24 71.5314L220.341 72.4077C220.112 72.7552 219.82 73.0874 219.466 73.4022C219.111 73.717 218.675 73.9724 218.157 74.1692C217.646 74.3669 217.038 74.4648 216.337 74.4648ZM231.217 74.4648C230.475 74.4648 229.802 74.34 229.198 74.0904C228.601 73.8351 228.087 73.4771 227.654 73.0182C227.227 72.5584 226.899 72.0142 226.67 71.3845C226.44 70.7538 226.325 70.0656 226.325 69.3169V68.9041C226.325 68.0373 226.454 67.2665 226.709 66.5908C226.965 65.9083 227.313 65.3304 227.752 64.8582C228.192 64.3859 228.691 64.0288 229.248 63.786C229.806 63.5431 230.383 63.4212 230.98 63.4212C231.741 63.4212 232.397 63.5527 232.948 63.8148C233.505 64.0778 233.961 64.4454 234.316 64.9177C234.67 65.3832 234.932 65.9342 235.103 66.5706C235.274 67.2013 235.359 67.8895 235.359 68.6382V69.4551H227.408V67.9692H233.538V67.831C233.512 67.3587 233.414 66.8989 233.243 66.4525C233.079 66.0072 232.816 65.6395 232.456 65.3506C232.096 65.0617 231.603 64.9177 230.98 64.9177C230.567 64.9177 230.186 65.006 229.838 65.1836C229.491 65.3535 229.193 65.6098 228.943 65.9505C228.694 66.2923 228.5 66.7088 228.362 67.2013C228.224 67.6927 228.156 68.261 228.156 68.9041V69.3169C228.156 69.8227 228.224 70.2979 228.362 70.7442C228.506 71.1839 228.714 71.5707 228.982 71.9057C229.258 72.2407 229.589 72.5028 229.977 72.6928C230.37 72.8838 230.816 72.9789 231.314 72.9789C231.957 72.9789 232.502 72.8474 232.948 72.5853C233.394 72.3223 233.785 71.971 234.119 71.5314L235.221 72.4077C234.992 72.7552 234.699 73.0874 234.345 73.4022C233.991 73.717 233.555 73.9724 233.037 74.1692C232.525 74.3669 231.918 74.4648 231.217 74.4648ZM238.311 63.618L240.643 67.496L243.005 63.618H245.141L241.657 68.8744L245.249 74.268H243.143L240.683 70.272L238.223 74.268H236.107L239.69 68.8744L236.216 63.618H238.311ZM248.497 65.6654V78.3629H246.666V63.618H248.339L248.497 65.6654ZM255.67 68.8542V69.0615C255.67 69.8352 255.579 70.5542 255.395 71.2165C255.211 71.8731 254.943 72.4442 254.588 72.929C254.24 73.4147 253.81 73.7919 253.299 74.0616C252.787 74.3304 252.2 74.4648 251.538 74.4648C250.862 74.4648 250.264 74.3535 249.746 74.1298C249.228 73.9071 248.788 73.5827 248.427 73.1555C248.067 72.7293 247.779 72.2177 247.562 71.6206C247.352 71.0236 247.208 70.3507 247.129 69.6029V68.5C247.208 67.7129 247.355 67.0074 247.571 66.3844C247.788 65.7605 248.073 65.2287 248.427 64.789C248.788 64.3437 249.225 64.0058 249.736 63.7754C250.248 63.5393 250.839 63.4212 251.508 63.4212C252.177 63.4212 252.771 63.5527 253.289 63.8148C253.807 64.071 254.243 64.4387 254.598 64.9177C254.952 65.3967 255.218 65.9707 255.395 66.6397C255.579 67.303 255.67 68.0412 255.67 68.8542ZM253.84 69.0615V68.8542C253.84 68.3234 253.784 67.8242 253.673 67.3587C253.562 66.8864 253.387 66.4727 253.151 66.1185C252.922 65.7576 252.626 65.4754 252.265 65.2719C251.904 65.0617 251.475 64.957 250.976 64.957C250.518 64.957 250.117 65.0357 249.776 65.1932C249.442 65.3506 249.156 65.5637 248.92 65.8325C248.684 66.0955 248.49 66.3969 248.339 66.7386C248.195 67.0726 248.087 67.4211 248.015 67.782V70.3305C248.145 70.7903 248.33 71.2232 248.566 71.6302C248.802 72.0305 249.116 72.3549 249.51 72.6045C249.904 72.8474 250.4 72.9683 250.996 72.9683C251.488 72.9683 251.911 72.8675 252.265 72.664C252.626 72.4538 252.922 72.1678 253.151 71.8078C253.387 71.4469 253.562 71.0332 253.673 70.5676C253.784 70.0944 253.84 69.5924 253.84 69.0615ZM262.008 74.4648C261.267 74.4648 260.594 74.34 259.991 74.0904C259.394 73.8351 258.878 73.4771 258.445 73.0182C258.019 72.5584 257.691 72.0142 257.462 71.3845C257.232 70.7538 257.117 70.0656 257.117 69.3169V68.9041C257.117 68.0373 257.245 67.2665 257.501 66.5908C257.757 65.9083 258.105 65.3304 258.544 64.8582C258.984 64.3859 259.482 64.0288 260.04 63.786C260.598 63.5431 261.175 63.4212 261.772 63.4212C262.533 63.4212 263.189 63.5527 263.74 63.8148C264.298 64.0778 264.753 64.4454 265.108 64.9177C265.462 65.3832 265.725 65.9342 265.895 66.5706C266.065 67.2013 266.151 67.8895 266.151 68.6382V69.4551H258.2V67.9692H264.33V67.831C264.304 67.3587 264.205 66.8989 264.036 66.4525C263.872 66.0072 263.609 65.6395 263.248 65.3506C262.887 65.0617 262.396 64.9177 261.772 64.9177C261.358 64.9177 260.978 65.006 260.631 65.1836C260.282 65.3535 259.984 65.6098 259.735 65.9505C259.486 66.2923 259.292 66.7088 259.155 67.2013C259.016 67.6927 258.947 68.261 258.947 68.9041V69.3169C258.947 69.8227 259.016 70.2979 259.155 70.7442C259.299 71.1839 259.505 71.5707 259.775 71.9057C260.05 72.2407 260.381 72.5028 260.768 72.6928C261.161 72.8838 261.608 72.9789 262.107 72.9789C262.75 72.9789 263.294 72.8474 263.74 72.5853C264.186 72.3223 264.577 71.971 264.911 71.5314L266.014 72.4077C265.783 72.7552 265.491 73.0874 265.137 73.4022C264.783 73.717 264.347 73.9724 263.828 74.1692C263.317 74.3669 262.71 74.4648 262.008 74.4648ZM269.694 65.2911V74.268H267.873V63.618H269.645L269.694 65.2911ZM273.02 63.5594L273.01 65.2517C272.859 65.2191 272.715 65.1999 272.577 65.1932C272.446 65.1797 272.295 65.173 272.125 65.173C271.704 65.173 271.334 65.2392 271.012 65.3698C270.691 65.5013 270.418 65.6856 270.196 65.9217C269.972 66.1579 269.796 66.4401 269.664 66.7683C269.539 67.089 269.458 67.4441 269.418 67.831L268.907 68.1266C268.907 67.4835 268.969 66.8797 269.093 66.3153C269.225 65.7509 269.425 65.2517 269.694 64.8188C269.963 64.3792 270.304 64.0384 270.717 63.7956C271.137 63.546 271.635 63.4212 272.213 63.4212C272.344 63.4212 272.495 63.4375 272.666 63.4702C272.836 63.497 272.954 63.5268 273.02 63.5594ZM276.277 63.618V74.268H274.447V63.618H276.277ZM274.309 60.793C274.309 60.4983 274.398 60.2487 274.575 60.0452C274.759 59.8417 275.028 59.74 275.382 59.74C275.729 59.74 275.995 59.8417 276.179 60.0452C276.369 60.2487 276.464 60.4983 276.464 60.793C276.464 61.0752 276.369 61.3181 276.179 61.5216C275.995 61.7183 275.729 61.8172 275.382 61.8172C275.028 61.8172 274.759 61.7183 274.575 61.5216C274.398 61.3181 274.309 61.0752 274.309 60.793ZM283.216 74.4648C282.474 74.4648 281.801 74.34 281.198 74.0904C280.602 73.8351 280.086 73.4771 279.653 73.0182C279.226 72.5584 278.899 72.0142 278.669 71.3845C278.439 70.7538 278.324 70.0656 278.324 69.3169V68.9041C278.324 68.0373 278.453 67.2665 278.708 66.5908C278.964 65.9083 279.312 65.3304 279.751 64.8582C280.191 64.3859 280.69 64.0288 281.247 63.786C281.805 63.5431 282.382 63.4212 282.98 63.4212C283.741 63.4212 284.396 63.5527 284.947 63.8148C285.505 64.0778 285.96 64.4454 286.315 64.9177C286.67 65.3832 286.932 65.9342 287.102 66.5706C287.273 67.2013 287.359 67.8895 287.359 68.6382V69.4551H279.407V67.9692H285.538V67.831C285.511 67.3587 285.413 66.8989 285.243 66.4525C285.078 66.0072 284.816 65.6395 284.456 65.3506C284.095 65.0617 283.602 64.9177 282.98 64.9177C282.566 64.9177 282.185 65.006 281.838 65.1836C281.49 65.3535 281.192 65.6098 280.942 65.9505C280.693 66.2923 280.5 66.7088 280.362 67.2013C280.223 67.6927 280.155 68.261 280.155 68.9041V69.3169C280.155 69.8227 280.223 70.2979 280.362 70.7442C280.506 71.1839 280.713 71.5707 280.982 71.9057C281.257 72.2407 281.588 72.5028 281.976 72.6928C282.369 72.8838 282.816 72.9789 283.314 72.9789C283.957 72.9789 284.501 72.8474 284.947 72.5853C285.393 72.3223 285.784 71.971 286.119 71.5314L287.22 72.4077C286.991 72.7552 286.699 73.0874 286.344 73.4022C285.99 73.717 285.554 73.9724 285.036 74.1692C284.524 74.3669 283.917 74.4648 283.216 74.4648ZM290.901 65.892V74.268H289.08V63.618H290.803L290.901 65.892ZM290.468 68.5394L289.711 68.5096C289.717 67.782 289.825 67.1091 290.035 66.4919C290.245 65.8689 290.54 65.3275 290.921 64.8687C291.301 64.4089 291.754 64.0547 292.279 63.8052C292.811 63.5489 293.397 63.4212 294.04 63.4212C294.565 63.4212 295.037 63.4932 295.457 63.6381C295.877 63.7754 296.235 63.9991 296.53 64.3072C296.832 64.6153 297.061 65.0156 297.218 65.508C297.376 65.9937 297.454 66.5879 297.454 67.2896V74.268H295.624V67.2694C295.624 66.7117 295.543 66.2663 295.379 65.9313C295.215 65.5896 294.975 65.3439 294.66 65.1932C294.345 65.0357 293.958 64.957 293.499 64.957C293.047 64.957 292.633 65.0521 292.259 65.2421C291.892 65.4322 291.574 65.6952 291.305 66.0292C291.042 66.3642 290.836 66.7482 290.685 67.1811C290.54 67.6083 290.468 68.0604 290.468 68.5394ZM304.078 72.9683C304.511 72.9683 304.911 72.88 305.279 72.7034C305.646 72.5258 305.948 72.2829 306.184 71.9748C306.42 71.66 306.554 71.3019 306.587 70.9017H308.319C308.286 71.5314 308.073 72.1188 307.68 72.664C307.292 73.2016 306.784 73.6383 306.154 73.9724C305.524 74.3007 304.832 74.4648 304.078 74.4648C303.278 74.4648 302.579 74.3237 301.982 74.0415C301.391 73.7593 300.9 73.3724 300.506 72.88C300.118 72.3885 299.827 71.8241 299.63 71.1877C299.44 70.5446 299.345 69.865 299.345 69.1499V68.7361C299.345 68.021 299.44 67.3452 299.63 66.7088C299.827 66.0657 300.118 65.4984 300.506 65.006C300.9 64.5136 301.391 64.1267 301.982 63.8445C302.579 63.5623 303.278 63.4212 304.078 63.4212C304.911 63.4212 305.64 63.5921 306.262 63.9328C306.886 64.2678 307.375 64.7276 307.729 65.3112C308.09 65.8891 308.286 66.5447 308.319 67.28H306.587C306.554 66.8403 306.429 66.443 306.213 66.0887C306.003 65.7345 305.714 65.4523 305.347 65.2421C304.987 65.0261 304.564 64.9177 304.078 64.9177C303.521 64.9177 303.051 65.029 302.67 65.2517C302.297 65.4686 301.999 65.7643 301.775 66.1377C301.559 66.5053 301.402 66.9152 301.303 67.3683C301.211 67.8146 301.166 68.2706 301.166 68.7361V69.1499C301.166 69.6154 301.211 70.0752 301.303 70.5283C301.395 70.9804 301.548 71.3902 301.765 71.7579C301.988 72.1255 302.287 72.4212 302.661 72.6439C303.042 72.8608 303.514 72.9683 304.078 72.9683ZM314.381 74.4648C313.64 74.4648 312.968 74.34 312.364 74.0904C311.767 73.8351 311.252 73.4771 310.819 73.0182C310.393 72.5584 310.065 72.0142 309.835 71.3845C309.605 70.7538 309.491 70.0656 309.491 69.3169V68.9041C309.491 68.0373 309.618 67.2665 309.875 66.5908C310.13 65.9083 310.478 65.3304 310.918 64.8582C311.357 64.3859 311.855 64.0288 312.413 63.786C312.971 63.5431 313.548 63.4212 314.145 63.4212C314.906 63.4212 315.562 63.5527 316.113 63.8148C316.671 64.0778 317.127 64.4454 317.481 64.9177C317.835 65.3832 318.098 65.9342 318.268 66.5706C318.439 67.2013 318.524 67.8895 318.524 68.6382V69.4551H310.573V67.9692H316.704V67.831C316.678 67.3587 316.579 66.8989 316.408 66.4525C316.244 66.0072 315.982 65.6395 315.621 65.3506C315.26 65.0617 314.768 64.9177 314.145 64.9177C313.732 64.9177 313.352 65.006 313.003 65.1836C312.656 65.3535 312.357 65.6098 312.108 65.9505C311.859 66.2923 311.665 66.7088 311.527 67.2013C311.39 67.6927 311.321 68.261 311.321 68.9041V69.3169C311.321 69.8227 311.39 70.2979 311.527 70.7442C311.672 71.1839 311.878 71.5707 312.147 71.9057C312.423 72.2407 312.755 72.5028 313.141 72.6928C313.535 72.8838 313.981 72.9789 314.48 72.9789C315.122 72.9789 315.667 72.8474 316.113 72.5853C316.56 72.3223 316.949 71.971 317.284 71.5314L318.386 72.4077C318.157 72.7552 317.865 73.0874 317.511 73.4022C317.157 73.717 316.72 73.9724 316.202 74.1692C315.69 74.3669 315.083 74.4648 314.381 74.4648ZM327.538 72.378L330.274 63.618H331.475L331.239 65.3602L328.454 74.268H327.283L327.538 72.378ZM325.699 63.618L328.031 72.4769L328.198 74.268H326.968L323.878 63.618H325.699ZM334.092 72.4077L336.317 63.618H338.127L335.037 74.268H333.817L334.092 72.4077ZM331.741 63.618L334.417 72.2302L334.723 74.268H333.561L330.698 65.341L330.462 63.618H331.741ZM339.111 69.0615V68.835C339.111 68.0671 339.222 67.3549 339.446 66.6992C339.669 66.036 339.99 65.4619 340.411 64.9762C340.83 64.4848 341.339 64.1037 341.935 63.8349C342.532 63.5594 343.201 63.4212 343.943 63.4212C344.691 63.4212 345.363 63.5594 345.96 63.8349C346.564 64.1037 347.076 64.4848 347.496 64.9762C347.922 65.4619 348.246 66.036 348.47 66.6992C348.693 67.3549 348.804 68.0671 348.804 68.835V69.0615C348.804 69.8285 348.693 70.5407 348.47 71.1973C348.246 71.8529 347.922 72.4279 347.496 72.9194C347.076 73.4051 346.567 73.7862 345.97 74.0616C345.38 74.3304 344.711 74.4648 343.962 74.4648C343.215 74.4648 342.542 74.3304 341.945 74.0616C341.348 73.7862 340.837 73.4051 340.411 72.9194C339.99 72.4279 339.669 71.8529 339.446 71.1973C339.222 70.5407 339.111 69.8285 339.111 69.0615ZM340.932 68.835V69.0615C340.932 69.5924 340.994 70.0944 341.119 70.5676C341.244 71.0332 341.431 71.4469 341.68 71.8078C341.935 72.1678 342.254 72.4538 342.634 72.664C343.015 72.8675 343.458 72.9683 343.962 72.9683C344.461 72.9683 344.898 72.8675 345.271 72.664C345.652 72.4538 345.967 72.1678 346.217 71.8078C346.465 71.4469 346.652 71.0332 346.777 70.5676C346.909 70.0944 346.974 69.5924 346.974 69.0615V68.835C346.974 68.3099 346.909 67.8146 346.777 67.3491C346.652 66.8759 346.462 66.4593 346.206 66.0983C345.957 65.7307 345.642 65.4427 345.262 65.2325C344.887 65.0223 344.448 64.9177 343.943 64.9177C343.444 64.9177 343.005 65.0223 342.625 65.2325C342.25 65.4427 341.935 65.7307 341.68 66.0983C341.431 66.4593 341.244 66.8759 341.119 67.3491C340.994 67.8146 340.932 68.3099 340.932 68.835ZM352.504 65.2911V74.268H350.684V63.618H352.455L352.504 65.2911ZM355.831 63.5594L355.821 65.2517C355.67 65.2191 355.525 65.1999 355.388 65.1932C355.257 65.1797 355.106 65.173 354.935 65.173C354.515 65.173 354.145 65.2392 353.823 65.3698C353.502 65.5013 353.23 65.6856 353.006 65.9217C352.784 66.1579 352.606 66.4401 352.475 66.7683C352.351 67.089 352.268 67.4441 352.229 67.831L351.717 68.1266C351.717 67.4835 351.78 66.8797 351.905 66.3153C352.035 65.7509 352.236 65.2517 352.504 64.8188C352.774 64.3792 353.115 64.0384 353.528 63.7956C353.948 63.546 354.447 63.4212 355.024 63.4212C355.155 63.4212 355.306 63.4375 355.477 63.4702C355.647 63.497 355.765 63.5268 355.831 63.5594ZM358.941 59.1497V74.268H357.11V59.1497H358.941ZM365.446 63.618L360.801 68.5883L358.203 71.2856L358.055 69.3466L359.915 67.1226L363.221 63.618H365.446ZM363.783 74.268L359.984 69.1892L360.928 67.5651L365.927 74.268H363.783ZM368.9 63.618V74.268H367.069V63.618H368.9ZM366.931 60.793C366.931 60.4983 367.02 60.2487 367.197 60.0452C367.381 59.8417 367.65 59.74 368.004 59.74C368.352 59.74 368.617 59.8417 368.802 60.0452C368.992 60.2487 369.087 60.4983 369.087 60.793C369.087 61.0752 368.992 61.3181 368.802 61.5216C368.617 61.7183 368.352 61.8172 368.004 61.8172C367.65 61.8172 367.381 61.7183 367.197 61.5216C367.02 61.3181 366.931 61.0752 366.931 60.793ZM373.239 65.892V74.268H371.419V63.618H373.141L373.239 65.892ZM372.806 68.5394L372.049 68.5096C372.056 67.782 372.163 67.1091 372.374 66.4919C372.584 65.8689 372.878 65.3275 373.259 64.8687C373.639 64.4089 374.092 64.0547 374.617 63.8052C375.149 63.5489 375.736 63.4212 376.378 63.4212C376.903 63.4212 377.376 63.4932 377.796 63.6381C378.216 63.7754 378.573 63.9991 378.869 64.3072C379.17 64.6153 379.399 65.0156 379.557 65.508C379.715 65.9937 379.794 66.5879 379.794 67.2896V74.268H377.963V67.2694C377.963 66.7117 377.881 66.2663 377.717 65.9313C377.553 65.5896 377.314 65.3439 376.998 65.1932C376.683 65.0357 376.297 64.957 375.837 64.957C375.385 64.957 374.971 65.0521 374.597 65.2421C374.231 65.4322 373.912 65.6952 373.643 66.0292C373.38 66.3642 373.174 66.7482 373.023 67.1811C372.878 67.6083 372.806 68.0604 372.806 68.5394ZM389.054 63.618H390.707V74.0415C390.707 74.9803 390.516 75.7808 390.136 76.4431C389.755 77.1064 389.225 77.6075 388.542 77.9492C387.867 78.2967 387.085 78.4704 386.2 78.4704C385.832 78.4704 385.399 78.4119 384.901 78.2938C384.409 78.1825 383.923 77.9886 383.444 77.7131C382.972 77.4443 382.575 77.0796 382.253 76.6207L383.208 75.538C383.655 76.0755 384.12 76.4499 384.606 76.6601C385.098 76.8693 385.584 76.9749 386.062 76.9749C386.639 76.9749 387.138 76.8665 387.558 76.6495C387.978 76.4335 388.302 76.112 388.532 75.6858C388.769 75.2654 388.887 74.747 388.887 74.1298V65.9611L389.054 63.618ZM381.723 69.0615V68.8542C381.723 68.0412 381.818 67.303 382.008 66.6397C382.204 65.9707 382.484 65.3967 382.845 64.9177C383.212 64.4387 383.655 64.071 384.173 63.8148C384.691 63.5527 385.274 63.4212 385.924 63.4212C386.593 63.4212 387.178 63.5393 387.676 63.7754C388.181 64.0058 388.607 64.3437 388.955 64.789C389.31 65.2287 389.588 65.7605 389.792 66.3844C389.995 67.0074 390.136 67.7129 390.215 68.5V69.4061C390.143 70.1865 390.002 70.8882 389.792 71.5122C389.588 72.1351 389.31 72.6669 388.955 73.1065C388.607 73.5462 388.181 73.8841 387.676 74.1202C387.171 74.3496 386.581 74.4648 385.905 74.4648C385.269 74.4648 384.691 74.3304 384.173 74.0616C383.661 73.7919 383.222 73.4147 382.854 72.929C382.487 72.4442 382.204 71.8731 382.008 71.2165C381.818 70.5542 381.723 69.8352 381.723 69.0615ZM383.543 68.8542V69.0615C383.543 69.5924 383.595 70.0915 383.701 70.5571C383.812 71.0236 383.979 71.4334 384.203 71.7876C384.432 72.1418 384.724 72.4212 385.078 72.6247C385.432 72.8215 385.855 72.9194 386.347 72.9194C386.951 72.9194 387.45 72.7917 387.844 72.5354C388.237 72.2801 388.549 71.9422 388.778 71.5218C389.014 71.1023 389.198 70.6463 389.329 70.1539V67.782C389.257 67.4211 389.146 67.0726 388.994 66.7386C388.85 66.3969 388.66 66.0955 388.424 65.8325C388.194 65.5637 387.909 65.3506 387.568 65.1932C387.226 65.0357 386.826 64.957 386.368 64.957C385.869 64.957 385.439 65.0617 385.078 65.2719C384.724 65.4754 384.432 65.7576 384.203 66.1185C383.979 66.4727 383.812 66.8864 383.701 67.3587C383.595 67.8242 383.543 68.3234 383.543 68.8542ZM400.361 72.378L403.097 63.618H404.297L404.061 65.3602L401.276 74.268H400.105L400.361 72.378ZM398.521 63.618L400.853 72.4769L401.02 74.268H399.791L396.7 63.618H398.521ZM406.915 72.4077L409.139 63.618H410.95L407.86 74.268H406.639L406.915 72.4077ZM404.563 63.618L407.24 72.2302L407.545 74.268H406.384L403.52 65.341L403.284 63.618H404.563ZM414.394 63.618V74.268H412.564V63.618H414.394ZM412.426 60.793C412.426 60.4983 412.514 60.2487 412.691 60.0452C412.875 59.8417 413.144 59.74 413.499 59.74C413.846 59.74 414.112 59.8417 414.295 60.0452C414.486 60.2487 414.581 60.4983 414.581 60.793C414.581 61.0752 414.486 61.3181 414.295 61.5216C414.112 61.7183 413.846 61.8172 413.499 61.8172C413.144 61.8172 412.875 61.7183 412.691 61.5216C412.514 61.3181 412.426 61.0752 412.426 60.793ZM421.371 63.618V65.0156H415.615V63.618H421.371ZM417.563 61.0291H419.383V71.6302C419.383 71.9911 419.439 72.2638 419.55 72.4471C419.663 72.6304 419.807 72.7523 419.984 72.8109C420.161 72.8704 420.351 72.9002 420.554 72.9002C420.706 72.9002 420.863 72.8867 421.027 72.8608C421.197 72.8282 421.326 72.8013 421.41 72.7821L421.421 74.268C421.276 74.3141 421.086 74.3563 420.85 74.3957C420.62 74.4418 420.341 74.4648 420.013 74.4648C419.568 74.4648 419.157 74.3765 418.784 74.1989C418.409 74.0223 418.111 73.7266 417.888 73.3129C417.671 72.8935 417.563 72.329 417.563 71.6206V61.0291ZM424.924 59.1497V74.268H423.103V59.1497H424.924ZM424.491 68.5394L423.734 68.5096C423.74 67.782 423.848 67.1091 424.058 66.4919C424.268 65.8689 424.563 65.3275 424.944 64.8687C425.324 64.4089 425.777 64.0547 426.302 63.8052C426.833 63.5489 427.421 63.4212 428.063 63.4212C428.588 63.4212 429.061 63.4932 429.48 63.6381C429.9 63.7754 430.257 63.9991 430.553 64.3072C430.854 64.6153 431.084 65.0156 431.241 65.508C431.399 65.9937 431.478 66.5879 431.478 67.2896V74.268H429.647V67.2694C429.647 66.7117 429.566 66.2663 429.401 65.9313C429.237 65.5896 428.998 65.3439 428.683 65.1932C428.368 65.0357 427.981 64.957 427.521 64.957C427.069 64.957 426.656 65.0521 426.281 65.2421C425.915 65.4322 425.596 65.6952 425.328 66.0292C425.065 66.3642 424.858 66.7482 424.708 67.1811C424.563 67.6083 424.491 68.0604 424.491 68.5394ZM438.672 59.9368H443.415C444.49 59.9368 445.399 60.1009 446.141 60.4292C446.889 60.7575 447.456 61.2432 447.844 61.8863C448.237 62.5227 448.434 63.307 448.434 64.2381C448.434 64.8946 448.299 65.4946 448.03 66.0398C447.768 66.5773 447.388 67.0371 446.889 67.4172C446.396 67.7916 445.806 68.07 445.117 68.2543L444.586 68.4606H440.129L440.109 66.9152H443.474C444.156 66.9152 444.724 66.7971 445.177 66.561C445.629 66.3182 445.97 65.9937 446.2 65.5867C446.429 65.1797 446.544 64.7305 446.544 64.2381C446.544 63.6871 446.436 63.2052 446.22 62.7915C446.003 62.3778 445.662 62.0601 445.196 61.8364C444.737 61.607 444.143 61.4918 443.415 61.4918H440.571V74.268H438.672V59.9368ZM447.046 74.268L443.562 67.7714L445.54 67.7618L449.073 74.15V74.268H447.046ZM456.926 71.8078V63.618H458.757V74.268H457.015L456.926 71.8078ZM457.27 69.5636L458.029 69.5434C458.029 70.2518 457.953 70.9084 457.802 71.5122C457.658 72.1092 457.421 72.6276 457.094 73.0672C456.766 73.5068 456.336 73.8514 455.804 74.101C455.273 74.3439 454.627 74.4648 453.866 74.4648C453.347 74.4648 452.872 74.389 452.439 74.2383C452.012 74.0876 451.645 73.8543 451.337 73.5395C451.029 73.2246 450.789 72.8147 450.619 72.3089C450.455 71.804 450.372 71.1973 450.372 70.4879V63.618H452.193V70.5081C452.193 70.9871 452.246 71.3845 452.35 71.6993C452.462 72.0075 452.609 72.2532 452.794 72.4375C452.984 72.6141 453.194 72.7389 453.423 72.8109C453.659 72.8838 453.902 72.9194 454.151 72.9194C454.925 72.9194 455.539 72.7715 455.991 72.4769C456.444 72.1745 456.769 71.7713 456.965 71.2664C457.169 70.7538 457.27 70.1865 457.27 69.5636ZM467.328 71.4431C467.328 71.181 467.269 70.9381 467.151 70.7145C467.039 70.4851 466.807 70.2787 466.453 70.0944C466.104 69.9043 465.579 69.7402 464.878 69.6029C464.288 69.4781 463.753 69.3303 463.274 69.1594C462.801 68.9886 462.398 68.7822 462.063 68.5394C461.736 68.2965 461.482 68.0114 461.306 67.6831C461.128 67.3548 461.04 66.9709 461.04 66.5313C461.04 66.1118 461.132 65.7144 461.315 65.341C461.505 64.9666 461.771 64.6355 462.113 64.3465C462.46 64.0576 462.877 63.8311 463.362 63.6679C463.848 63.5037 464.389 63.4212 464.986 63.4212C465.838 63.4212 466.567 63.5719 467.17 63.8743C467.774 64.1757 468.237 64.5798 468.558 65.0847C468.88 65.5838 469.04 66.1377 469.04 66.7482H467.219C467.219 66.4525 467.131 66.1675 466.955 65.892C466.784 65.6098 466.531 65.3765 466.196 65.1932C465.868 65.0089 465.465 64.9177 464.986 64.9177C464.48 64.9177 464.071 64.9964 463.756 65.1538C463.448 65.3045 463.221 65.4984 463.076 65.7345C462.939 65.9707 462.87 66.2203 462.87 66.4823C462.87 66.6791 462.903 66.8567 462.969 67.0141C463.041 67.1648 463.166 67.3059 463.342 67.4374C463.52 67.5622 463.769 67.6803 464.091 67.7916C464.412 67.903 464.822 68.0143 465.32 68.1266C466.194 68.3234 466.911 68.5595 467.476 68.835C468.04 69.1105 468.459 69.4484 468.735 69.8487C469.011 70.2489 469.148 70.7346 469.148 71.3058C469.148 71.7713 469.05 72.1975 468.854 72.5853C468.663 72.9722 468.384 73.3072 468.017 73.5884C467.656 73.8649 467.223 74.0808 466.717 74.2383C466.219 74.389 465.658 74.4648 465.035 74.4648C464.097 74.4648 463.303 74.2978 462.654 73.9628C462.005 73.6278 461.512 73.1948 461.177 72.664C460.843 72.1322 460.676 71.5707 460.676 70.9804H462.506C462.532 71.4795 462.676 71.876 462.939 72.1716C463.201 72.4605 463.523 72.6669 463.904 72.7917C464.284 72.9098 464.661 72.9683 465.035 72.9683C465.534 72.9683 465.951 72.903 466.285 72.7715C466.626 72.641 466.885 72.4605 467.062 72.2302C467.24 72.0007 467.328 71.7387 467.328 71.4431ZM475.594 63.618V65.0156H469.837V63.618H475.594ZM471.786 61.0291H473.607V71.6302C473.607 71.9911 473.663 72.2638 473.774 72.4471C473.885 72.6304 474.029 72.7523 474.207 72.8109C474.384 72.8704 474.574 72.9002 474.778 72.9002C474.929 72.9002 475.086 72.8867 475.25 72.8608C475.421 72.8282 475.548 72.8013 475.634 72.7821L475.643 74.268C475.5 74.3141 475.309 74.3563 475.072 74.3957C474.843 74.4418 474.565 74.4648 474.237 74.4648C473.79 74.4648 473.381 74.3765 473.006 74.1989C472.632 74.0223 472.334 73.7266 472.111 73.3129C471.894 72.8935 471.786 72.329 471.786 71.6206V61.0291ZM481.283 70.2326H479.452C479.459 69.6029 479.515 69.0875 479.619 68.6872C479.731 68.2802 479.911 67.9097 480.161 67.5747C480.41 67.2406 480.741 66.8595 481.155 66.4333C481.456 66.1252 481.732 65.8363 481.981 65.5675C482.237 65.2911 482.444 64.9964 482.601 64.6815C482.759 64.36 482.837 63.976 482.837 63.5297C482.837 63.0766 482.756 62.6869 482.592 62.3586C482.434 62.0303 482.198 61.7778 481.883 61.6003C481.574 61.4236 481.19 61.3344 480.732 61.3344C480.351 61.3344 479.99 61.4035 479.649 61.5417C479.308 61.679 479.032 61.8921 478.823 62.181C478.613 62.4632 478.504 62.8337 478.498 63.2935H476.677C476.69 62.5515 476.874 61.9151 477.228 61.3843C477.589 60.8525 478.074 60.4455 478.685 60.1633C479.295 59.8811 479.977 59.74 480.732 59.74C481.565 59.74 482.273 59.8907 482.857 60.1931C483.448 60.4945 483.897 60.9283 484.205 61.4918C484.514 62.0495 484.667 62.7128 484.667 63.4807C484.667 64.071 484.546 64.6153 484.304 65.1145C484.068 65.6069 483.762 66.0686 483.388 66.5025C483.015 66.9354 482.617 67.3491 482.198 67.7426C481.837 68.0767 481.594 68.4539 481.47 68.8744C481.345 69.2938 481.283 69.7469 481.283 70.2326ZM479.374 73.3523C479.374 73.0576 479.465 72.808 479.649 72.6045C479.832 72.401 480.098 72.2993 480.446 72.2993C480.801 72.2993 481.069 72.401 481.253 72.6045C481.437 72.808 481.528 73.0576 481.528 73.3523C481.528 73.6345 481.437 73.8773 481.253 74.0808C481.069 74.2843 480.801 74.3861 480.446 74.3861C480.098 74.3861 479.832 74.2843 479.649 74.0808C479.465 73.8773 479.374 73.6345 479.374 73.3523Z" fill="black"/>
<g filter="url(#filter1_d_0_1)">
<path d="M278.02 100.185H192.608C187.308 100.185 183.012 104.483 183.012 109.784V138.581C183.012 143.882 187.308 148.18 192.608 148.18H278.02C283.32 148.18 287.617 143.882 287.617 138.581V109.784C287.617 104.483 283.32 100.185 278.02 100.185Z" fill="#FF6CDF"/>
<path d="M221.118 116.848L225.014 124.386L228.921 116.848H231.179L226.004 126.252V131.862H224.014V126.252L218.84 116.848H221.118ZM236.344 132.068C235.568 132.068 234.864 131.937 234.231 131.676C233.605 131.408 233.066 131.033 232.613 130.552C232.166 130.07 231.822 129.5 231.581 128.841C231.342 128.18 231.221 127.459 231.221 126.675V126.242C231.221 125.334 231.355 124.527 231.623 123.819C231.891 123.104 232.255 122.499 232.716 122.004C233.176 121.509 233.699 121.135 234.283 120.88C234.867 120.626 235.472 120.498 236.097 120.498C236.894 120.498 237.581 120.636 238.159 120.911C238.744 121.186 239.221 121.571 239.592 122.066C239.963 122.554 240.238 123.131 240.416 123.799C240.596 124.458 240.685 125.18 240.685 125.963V126.819H232.355V125.262H238.777V125.118C238.75 124.623 238.647 124.142 238.468 123.675C238.296 123.207 238.022 122.822 237.644 122.52C237.266 122.217 236.75 122.066 236.097 122.066C235.664 122.066 235.266 122.159 234.901 122.344C234.537 122.523 234.224 122.791 233.963 123.149C233.702 123.506 233.499 123.943 233.355 124.458C233.211 124.973 233.138 125.569 233.138 126.242V126.675C233.138 127.204 233.211 127.702 233.355 128.17C233.507 128.631 233.723 129.037 234.005 129.387C234.294 129.737 234.64 130.013 235.046 130.212C235.458 130.411 235.925 130.511 236.448 130.511C237.121 130.511 237.692 130.374 238.159 130.098C238.626 129.824 239.035 129.455 239.386 128.995L240.54 129.913C240.3 130.277 239.994 130.624 239.623 130.955C239.252 131.284 238.794 131.553 238.252 131.759C237.716 131.964 237.079 132.068 236.344 132.068ZM248.984 128.902C248.984 128.628 248.922 128.373 248.798 128.139C248.681 127.898 248.437 127.682 248.067 127.489C247.702 127.291 247.152 127.119 246.417 126.974C245.798 126.843 245.239 126.689 244.737 126.51C244.242 126.332 243.819 126.115 243.469 125.86C243.124 125.606 242.861 125.307 242.674 124.963C242.489 124.619 242.396 124.217 242.396 123.757C242.396 123.317 242.493 122.901 242.685 122.509C242.885 122.118 243.163 121.77 243.52 121.468C243.885 121.166 244.321 120.928 244.829 120.757C245.337 120.585 245.905 120.498 246.53 120.498C247.424 120.498 248.187 120.657 248.819 120.973C249.452 121.289 249.935 121.712 250.272 122.242C250.609 122.764 250.778 123.344 250.778 123.984H248.87C248.87 123.675 248.778 123.375 248.592 123.086C248.413 122.791 248.148 122.547 247.798 122.355C247.455 122.162 247.032 122.066 246.53 122.066C246.001 122.066 245.572 122.148 245.242 122.314C244.919 122.471 244.681 122.674 244.53 122.922C244.386 123.169 244.314 123.43 244.314 123.705C244.314 123.912 244.348 124.097 244.417 124.262C244.493 124.421 244.624 124.568 244.809 124.706C244.994 124.836 245.255 124.96 245.592 125.077C245.929 125.193 246.359 125.31 246.881 125.427C247.795 125.634 248.548 125.881 249.139 126.169C249.73 126.458 250.169 126.813 250.458 127.232C250.746 127.652 250.891 128.16 250.891 128.758C250.891 129.246 250.788 129.693 250.582 130.098C250.383 130.504 250.091 130.855 249.706 131.15C249.328 131.439 248.874 131.666 248.345 131.831C247.822 131.988 247.235 132.068 246.582 132.068C245.599 132.068 244.767 131.892 244.087 131.542C243.407 131.192 242.891 130.738 242.541 130.181C242.19 129.624 242.015 129.037 242.015 128.418H243.933C243.96 128.94 244.111 129.356 244.386 129.665C244.661 129.968 244.998 130.185 245.396 130.315C245.795 130.439 246.19 130.501 246.582 130.501C247.104 130.501 247.541 130.431 247.891 130.294C248.248 130.157 248.52 129.968 248.706 129.727C248.891 129.487 248.984 129.211 248.984 128.902Z" fill="white"/>
<path d="M278.02 100.905H192.608C187.706 100.905 183.731 104.88 183.731 109.784V138.581C183.731 143.485 187.706 147.46 192.608 147.46H278.02C282.922 147.46 286.897 143.485 286.897 138.581V109.784C286.897 104.88 282.922 100.905 278.02 100.905Z" stroke="#FF6CDF" stroke-width="1.5"/>
</g>
<path d="M366.733 116.848V131.862H364.733L357.177 120.283V131.862H355.187V116.848H357.177L364.764 128.459V116.848H366.733ZM369.042 126.407V126.17C369.042 125.365 369.159 124.619 369.394 123.932C369.627 123.238 369.964 122.636 370.403 122.128C370.844 121.612 371.376 121.214 372.001 120.932C372.627 120.643 373.328 120.499 374.105 120.499C374.888 120.499 375.592 120.643 376.218 120.932C376.85 121.214 377.386 121.612 377.826 122.128C378.273 122.636 378.613 123.238 378.846 123.932C379.081 124.619 379.197 125.365 379.197 126.17V126.407C379.197 127.211 379.081 127.957 378.846 128.644C378.613 129.333 378.273 129.933 377.826 130.449C377.386 130.958 376.853 131.357 376.228 131.645C375.609 131.927 374.909 132.068 374.125 132.068C373.342 132.068 372.637 131.927 372.012 131.645C371.386 131.357 370.85 130.958 370.403 130.449C369.964 129.933 369.627 129.333 369.394 128.644C369.159 127.957 369.042 127.211 369.042 126.407ZM370.95 126.17V126.407C370.95 126.964 371.015 127.49 371.146 127.985C371.276 128.472 371.472 128.906 371.733 129.284C372.001 129.662 372.335 129.961 372.733 130.181C373.132 130.394 373.596 130.501 374.125 130.501C374.648 130.501 375.105 130.394 375.496 130.181C375.894 129.961 376.225 129.662 376.486 129.284C376.747 128.906 376.942 128.472 377.074 127.985C377.211 127.49 377.279 126.964 377.279 126.407V126.17C377.279 125.62 377.211 125.101 377.074 124.613C376.942 124.118 376.744 123.682 376.476 123.303C376.214 122.919 375.885 122.616 375.486 122.396C375.094 122.177 374.633 122.066 374.105 122.066C373.583 122.066 373.122 122.177 372.723 122.396C372.331 122.616 372.001 122.919 371.733 123.303C371.472 123.682 371.276 124.118 371.146 124.613C371.015 125.101 370.95 125.62 370.95 126.17Z" fill="#FF00C7"/>
<path d="M409.495 100.905H324.084C319.181 100.905 315.207 104.88 315.207 109.784V138.581C315.207 143.485 319.181 147.46 324.084 147.46H409.495C414.398 147.46 418.372 143.485 418.372 138.581V109.784C418.372 104.88 414.398 100.905 409.495 100.905Z" stroke="#FF00C7" stroke-width="1.5"/>
<path d="M70.3862 184.02L66.3208 195.215H64.6592L69.3404 182.931H70.4116L70.3862 184.02ZM73.7939 195.215L69.7199 184.02L69.6946 182.931H70.7658L75.4639 195.215H73.7939ZM73.583 190.668V192H66.6834V190.668H73.583ZM82.2795 193.443V182.256H83.8486V195.215H82.4148L82.2795 193.443ZM76.139 190.752V190.575C76.139 189.877 76.2234 189.244 76.3921 188.676C76.5664 188.103 76.811 187.611 77.1261 187.2C77.4466 186.79 77.8257 186.475 78.2642 186.255C78.7086 186.031 79.2038 185.917 79.7489 185.917C80.3227 185.917 80.8227 186.019 81.2507 186.222C81.6836 186.418 82.0492 186.708 82.3467 187.09C82.6509 187.468 82.8899 187.923 83.0636 188.457C83.2382 188.992 83.3592 189.596 83.4263 190.271V191.047C83.3649 191.716 83.244 192.318 83.0636 192.853C82.8899 193.387 82.6509 193.842 82.3467 194.22C82.0492 194.596 81.6836 194.886 81.2507 195.088C80.8179 195.285 80.3112 195.384 79.7325 195.384C79.198 195.384 78.7086 195.269 78.2642 195.037C77.8257 194.807 77.4466 194.483 77.1261 194.068C76.811 193.651 76.5664 193.162 76.3921 192.599C76.2234 192.032 76.139 191.416 76.139 190.752ZM77.7076 190.575V190.752C77.7076 191.207 77.7527 191.635 77.8429 192.035C77.9389 192.434 78.0848 192.785 78.2815 193.089C78.4782 193.393 78.7287 193.632 79.032 193.806C79.3362 193.975 79.699 194.059 80.1203 194.059C80.6375 194.059 81.0617 193.95 81.3937 193.73C81.7315 193.511 82.0012 193.221 82.2037 192.861C82.4062 192.501 82.5636 192.111 82.6759 191.688V189.655C82.6087 189.346 82.5098 189.048 82.3803 188.761C82.2575 188.469 82.0943 188.21 81.8918 187.985C81.6951 187.755 81.4504 187.571 81.1577 187.436C80.8707 187.302 80.531 187.234 80.1375 187.234C79.7095 187.234 79.341 187.324 79.032 187.504C78.7287 187.678 78.4782 187.92 78.2815 188.23C78.0848 188.533 77.9389 188.887 77.8429 189.292C77.7527 189.692 77.7076 190.119 77.7076 190.575ZM91.6844 193.443V182.256H93.2534V195.215H91.8197L91.6844 193.443ZM85.5443 190.752V190.575C85.5443 189.877 85.6288 189.244 85.7967 188.676C85.9714 188.103 86.2161 187.611 86.5309 187.2C86.8514 186.79 87.2305 186.475 87.67 186.255C88.1134 186.031 88.6086 185.917 89.1537 185.917C89.7276 185.917 90.2285 186.019 90.6556 186.222C91.0884 186.418 91.454 186.708 91.7515 187.09C92.0558 187.468 92.2947 187.923 92.4694 188.457C92.6431 188.992 92.764 189.596 92.8312 190.271V191.047C92.7698 191.716 92.6488 192.318 92.4694 192.853C92.2947 193.387 92.0558 193.842 91.7515 194.22C91.454 194.596 91.0884 194.886 90.6556 195.088C90.2228 195.285 89.7161 195.384 89.1374 195.384C88.6028 195.384 88.1134 195.269 87.67 195.037C87.2305 194.807 86.8514 194.483 86.5309 194.068C86.2161 193.651 85.9714 193.162 85.7967 192.599C85.6288 192.032 85.5443 191.416 85.5443 190.752ZM87.1125 190.575V190.752C87.1125 191.207 87.1576 191.635 87.2478 192.035C87.3437 192.434 87.4896 192.785 87.6863 193.089C87.8831 193.393 88.1336 193.632 88.4368 193.806C88.741 193.975 89.1038 194.059 89.5251 194.059C90.0424 194.059 90.4675 193.95 90.7986 193.73C91.1364 193.511 91.4061 193.221 91.6085 192.861C91.811 192.501 91.9684 192.111 92.0807 191.688V189.655C92.0135 189.346 91.9147 189.048 91.7861 188.761C91.6623 188.469 91.4991 188.21 91.2967 187.985C91.0999 187.755 90.8552 187.571 90.5625 187.436C90.2756 187.302 89.9358 187.234 89.5424 187.234C89.1143 187.234 88.7468 187.324 88.4368 187.504C88.1336 187.678 87.8831 187.92 87.6863 188.23C87.4896 188.533 87.3437 188.887 87.2478 189.292C87.1576 189.692 87.1125 190.119 87.1125 190.575ZM97.0326 186.086V195.215H95.4636V186.086H97.0326ZM95.3455 183.665C95.3455 183.412 95.4213 183.198 95.573 183.024C95.7304 182.85 95.9616 182.762 96.2649 182.762C96.5624 182.762 96.7908 182.85 96.9482 183.024C97.1113 183.198 97.1929 183.412 97.1929 183.665C97.1929 183.907 97.1113 184.116 96.9482 184.289C96.7908 184.458 96.5624 184.543 96.2649 184.543C95.9616 184.543 95.7304 184.458 95.573 184.289C95.4213 184.116 95.3455 183.907 95.3455 183.665ZM103.013 186.086V187.284H98.0787V186.086H103.013ZM99.7485 183.868H101.309V192.954C101.309 193.263 101.357 193.497 101.453 193.654C101.548 193.812 101.672 193.915 101.823 193.966C101.975 194.017 102.138 194.042 102.313 194.042C102.442 194.042 102.577 194.031 102.718 194.008C102.864 193.98 102.974 193.957 103.047 193.941L103.055 195.215C102.932 195.254 102.769 195.291 102.566 195.324C102.369 195.364 102.13 195.384 101.849 195.384C101.466 195.384 101.115 195.308 100.795 195.155C100.474 195.004 100.218 194.751 100.027 194.396C99.8416 194.036 99.7485 193.553 99.7485 192.946V183.868ZM106.193 186.086V195.215H104.625V186.086H106.193ZM104.507 183.665C104.507 183.412 104.582 183.198 104.734 183.024C104.891 182.85 105.122 182.762 105.426 182.762C105.723 182.762 105.951 182.85 106.108 183.024C106.271 183.198 106.353 183.412 106.353 183.665C106.353 183.907 106.271 184.116 106.108 184.289C105.951 184.458 105.723 184.543 105.426 184.543C105.122 184.543 104.891 184.458 104.734 184.289C104.582 184.116 104.507 183.907 104.507 183.665ZM107.939 190.752V190.557C107.939 189.9 108.035 189.289 108.226 188.727C108.417 188.159 108.693 187.667 109.053 187.251C109.412 186.829 109.848 186.503 110.361 186.273C110.872 186.036 111.445 185.917 112.08 185.917C112.721 185.917 113.298 186.036 113.81 186.273C114.327 186.503 114.766 186.829 115.125 187.251C115.491 187.667 115.769 188.159 115.96 188.727C116.152 189.289 116.247 189.9 116.247 190.557V190.752C116.247 191.41 116.152 192.02 115.96 192.583C115.769 193.145 115.491 193.637 115.125 194.059C114.766 194.475 114.33 194.801 113.818 195.037C113.313 195.269 112.739 195.384 112.098 195.384C111.457 195.384 110.881 195.269 110.368 195.037C109.857 194.801 109.418 194.475 109.053 194.059C108.693 193.637 108.417 193.145 108.226 192.583C108.035 192.02 107.939 191.41 107.939 190.752ZM109.5 190.557V190.752C109.5 191.207 109.554 191.637 109.66 192.042C109.767 192.442 109.927 192.796 110.141 193.106C110.361 193.415 110.633 193.66 110.959 193.839C111.285 194.014 111.665 194.101 112.098 194.101C112.525 194.101 112.899 194.014 113.22 193.839C113.546 193.66 113.815 193.415 114.029 193.106C114.243 192.796 114.403 192.442 114.51 192.042C114.623 191.637 114.679 191.207 114.679 190.752V190.557C114.679 190.108 114.623 189.683 114.51 189.284C114.403 188.879 114.24 188.522 114.021 188.212C113.807 187.898 113.537 187.65 113.211 187.47C112.89 187.29 112.514 187.2 112.08 187.2C111.653 187.2 111.277 187.29 110.951 187.47C110.63 187.65 110.361 187.898 110.141 188.212C109.927 188.522 109.767 188.879 109.66 189.284C109.554 189.683 109.5 190.108 109.5 190.557ZM119.419 188.036V195.215H117.859V186.086H119.335L119.419 188.036ZM119.049 190.305L118.399 190.279C118.405 189.655 118.497 189.078 118.677 188.55C118.857 188.016 119.11 187.552 119.436 187.158C119.763 186.764 120.15 186.461 120.6 186.247C121.055 186.028 121.559 185.917 122.11 185.917C122.56 185.917 122.965 185.98 123.325 186.104C123.685 186.222 123.991 186.413 124.244 186.677C124.502 186.942 124.699 187.284 124.834 187.707C124.97 188.122 125.037 188.632 125.037 189.234V195.215H123.468V189.217C123.468 188.738 123.398 188.355 123.257 188.069C123.117 187.777 122.911 187.565 122.642 187.436C122.371 187.302 122.04 187.234 121.646 187.234C121.258 187.234 120.904 187.316 120.583 187.478C120.268 187.641 119.996 187.867 119.765 188.154C119.54 188.44 119.363 188.769 119.234 189.141C119.11 189.506 119.049 189.894 119.049 190.305ZM132.443 193.654V188.955C132.443 188.595 132.37 188.283 132.223 188.019C132.083 187.749 131.869 187.541 131.582 187.395C131.296 187.248 130.942 187.175 130.52 187.175C130.126 187.175 129.781 187.242 129.482 187.377C129.19 187.513 128.959 187.689 128.79 187.909C128.627 188.128 128.546 188.364 128.546 188.618H126.985C126.985 188.291 127.07 187.968 127.238 187.647C127.407 187.326 127.649 187.037 127.964 186.778C128.285 186.514 128.666 186.306 129.111 186.154C129.561 185.996 130.062 185.917 130.613 185.917C131.276 185.917 131.861 186.031 132.367 186.255C132.879 186.48 133.278 186.821 133.565 187.276C133.857 187.726 134.003 188.291 134.003 188.972V193.224C134.003 193.527 134.028 193.851 134.079 194.195C134.136 194.537 134.217 194.833 134.324 195.08V195.215H132.696C132.617 195.034 132.555 194.795 132.51 194.498C132.465 194.195 132.443 193.913 132.443 193.654ZM132.712 189.68L132.73 190.777H131.152C130.708 190.777 130.311 190.814 129.963 190.887C129.615 190.955 129.322 191.059 129.086 191.199C128.85 191.34 128.669 191.516 128.546 191.73C128.423 191.939 128.36 192.184 128.36 192.465C128.36 192.752 128.425 193.013 128.554 193.249C128.684 193.485 128.878 193.674 129.137 193.814C129.401 193.95 129.724 194.017 130.106 194.017C130.584 194.017 131.006 193.915 131.372 193.714C131.737 193.511 132.026 193.263 132.24 192.971C132.46 192.678 132.578 192.395 132.594 192.118L133.261 192.87C133.222 193.106 133.115 193.367 132.941 193.654C132.766 193.941 132.533 194.217 132.24 194.481C131.953 194.74 131.611 194.956 131.212 195.13C130.818 195.299 130.374 195.384 129.879 195.384C129.261 195.384 128.717 195.263 128.251 195.021C127.789 194.779 127.429 194.456 127.171 194.051C126.918 193.64 126.791 193.182 126.791 192.675C126.791 192.186 126.887 191.755 127.078 191.385C127.269 191.008 127.545 190.696 127.904 190.448C128.264 190.196 128.698 190.004 129.204 189.875C129.71 189.745 130.275 189.68 130.9 189.68H132.712ZM137.807 182.256V195.215H136.238V182.256H137.807ZM151.944 193.89V195.215H145.442V193.89H151.944ZM145.771 182.931V195.215H144.142V182.931H145.771ZM151.085 188.212V189.537H145.442V188.212H151.085ZM151.86 182.931V184.264H145.442V182.931H151.86ZM154.433 186.086L156.432 189.41L158.457 186.086H160.287L157.301 190.592L160.38 195.215H158.575L156.466 191.79L154.357 195.215H152.544L155.614 190.592L152.636 186.086H154.433ZM163.163 187.841V198.724H161.595V186.086H163.029L163.163 187.841ZM169.313 190.575V190.752C169.313 191.416 169.234 192.032 169.077 192.599C168.919 193.162 168.688 193.651 168.385 194.068C168.086 194.483 167.719 194.807 167.28 195.037C166.841 195.269 166.338 195.384 165.77 195.384C165.191 195.384 164.679 195.288 164.235 195.097C163.791 194.906 163.414 194.627 163.104 194.262C162.795 193.896 162.548 193.457 162.363 192.946C162.182 192.434 162.058 191.857 161.991 191.216V190.271C162.058 189.596 162.185 188.992 162.37 188.457C162.557 187.923 162.801 187.468 163.104 187.09C163.414 186.708 163.788 186.418 164.226 186.222C164.665 186.019 165.171 185.917 165.745 185.917C166.318 185.917 166.827 186.031 167.271 186.255C167.716 186.475 168.089 186.79 168.393 187.2C168.697 187.611 168.924 188.103 169.077 188.676C169.234 189.244 169.313 189.877 169.313 190.575ZM167.744 190.752V190.575C167.744 190.119 167.696 189.692 167.601 189.292C167.505 188.887 167.356 188.533 167.153 188.23C166.957 187.92 166.703 187.678 166.394 187.504C166.084 187.324 165.717 187.234 165.289 187.234C164.895 187.234 164.553 187.302 164.26 187.436C163.973 187.571 163.728 187.755 163.526 187.985C163.323 188.21 163.158 188.469 163.029 188.761C162.905 189.048 162.812 189.346 162.75 189.655V191.84C162.863 192.234 163.02 192.605 163.223 192.954C163.425 193.297 163.695 193.575 164.033 193.789C164.369 193.997 164.795 194.101 165.306 194.101C165.727 194.101 166.09 194.014 166.394 193.839C166.703 193.66 166.957 193.415 167.153 193.106C167.356 192.796 167.505 192.442 167.601 192.042C167.696 191.637 167.744 191.207 167.744 190.752ZM172.653 182.256V195.215H171.084V182.256H172.653ZM180.193 193.654V188.955C180.193 188.595 180.121 188.283 179.975 188.019C179.834 187.749 179.621 187.541 179.334 187.395C179.047 187.248 178.693 187.175 178.27 187.175C177.877 187.175 177.531 187.242 177.233 187.377C176.941 187.513 176.71 187.689 176.542 187.909C176.379 188.128 176.297 188.364 176.297 188.618H174.737C174.737 188.291 174.821 187.968 174.989 187.647C175.158 187.326 175.4 187.037 175.715 186.778C176.035 186.514 176.418 186.306 176.862 186.154C177.312 185.996 177.813 185.917 178.363 185.917C179.027 185.917 179.612 186.031 180.118 186.255C180.629 186.48 181.028 186.821 181.315 187.276C181.608 187.726 181.754 188.291 181.754 188.972V193.224C181.754 193.527 181.78 193.851 181.83 194.195C181.886 194.537 181.968 194.833 182.074 195.08V195.215H180.447C180.368 195.034 180.307 194.795 180.262 194.498C180.217 194.195 180.193 193.913 180.193 193.654ZM180.464 189.68L180.48 190.777H178.904C178.459 190.777 178.063 190.814 177.714 190.887C177.365 190.955 177.073 191.059 176.837 191.199C176.6 191.34 176.421 191.516 176.297 191.73C176.173 191.939 176.111 192.184 176.111 192.465C176.111 192.752 176.176 193.013 176.306 193.249C176.434 193.485 176.628 193.674 176.887 193.814C177.151 193.95 177.475 194.017 177.858 194.017C178.336 194.017 178.757 193.915 179.122 193.714C179.488 193.511 179.778 193.263 179.991 192.971C180.211 192.678 180.329 192.395 180.346 192.118L181.012 192.87C180.973 193.106 180.866 193.367 180.692 193.654C180.517 193.941 180.284 194.217 179.991 194.481C179.705 194.74 179.361 194.956 178.962 195.13C178.569 195.299 178.124 195.384 177.629 195.384C177.011 195.384 176.468 195.263 176.002 195.021C175.541 194.779 175.181 194.456 174.922 194.051C174.669 193.64 174.543 193.182 174.543 192.675C174.543 192.186 174.638 191.755 174.829 191.385C175.021 191.008 175.296 190.696 175.656 190.448C176.016 190.196 176.449 190.004 176.955 189.875C177.461 189.745 178.027 189.68 178.65 189.68H180.464ZM185.559 186.086V195.215H183.99V186.086H185.559ZM183.872 183.665C183.872 183.412 183.948 183.198 184.099 183.024C184.257 182.85 184.487 182.762 184.791 182.762C185.089 182.762 185.317 182.85 185.475 183.024C185.638 183.198 185.719 183.412 185.719 183.665C185.719 183.907 185.638 184.116 185.475 184.289C185.317 184.458 185.089 184.543 184.791 184.543C184.487 184.543 184.257 184.458 184.099 184.289C183.948 184.116 183.872 183.907 183.872 183.665ZM189.279 188.036V195.215H187.718V186.086H189.194L189.279 188.036ZM188.907 190.305L188.258 190.279C188.263 189.655 188.356 189.078 188.536 188.55C188.716 188.016 188.97 187.552 189.295 187.158C189.621 186.764 190.01 186.461 190.459 186.247C190.915 186.028 191.418 185.917 191.97 185.917C192.419 185.917 192.824 185.98 193.184 186.104C193.544 186.222 193.851 186.413 194.103 186.677C194.362 186.942 194.559 187.284 194.693 187.707C194.829 188.122 194.896 188.632 194.896 189.234V195.215H193.328V189.217C193.328 188.738 193.257 188.355 193.117 188.069C192.975 187.777 192.771 187.565 192.5 187.436C192.231 187.302 191.899 187.234 191.505 187.234C191.117 187.234 190.763 187.316 190.443 187.478C190.128 187.641 189.855 187.867 189.624 188.154C189.4 188.44 189.222 188.769 189.093 189.141C188.97 189.506 188.907 189.894 188.907 190.305ZM202.303 193.654V188.955C202.303 188.595 202.229 188.283 202.083 188.019C201.943 187.749 201.729 187.541 201.442 187.395C201.155 187.248 200.801 187.175 200.379 187.175C199.985 187.175 199.639 187.242 199.342 187.377C199.049 187.513 198.819 187.689 198.65 187.909C198.487 188.128 198.405 188.364 198.405 188.618H196.845C196.845 188.291 196.929 187.968 197.098 187.647C197.266 187.326 197.508 187.037 197.824 186.778C198.144 186.514 198.526 186.306 198.971 186.154C199.421 185.996 199.921 185.917 200.471 185.917C201.136 185.917 201.72 186.031 202.226 186.255C202.738 186.48 203.137 186.821 203.423 187.276C203.716 187.726 203.862 188.291 203.862 188.972V193.224C203.862 193.527 203.888 193.851 203.939 194.195C203.994 194.537 204.076 194.833 204.183 195.08V195.215H202.555C202.476 195.034 202.415 194.795 202.37 194.498C202.325 194.195 202.303 193.913 202.303 193.654ZM202.572 189.68L202.589 190.777H201.012C200.567 190.777 200.171 190.814 199.823 190.887C199.473 190.955 199.182 191.059 198.945 191.199C198.709 191.34 198.529 191.516 198.405 191.73C198.281 191.939 198.22 192.184 198.22 192.465C198.22 192.752 198.284 193.013 198.414 193.249C198.543 193.485 198.737 193.674 198.995 193.814C199.26 193.95 199.584 194.017 199.966 194.017C200.444 194.017 200.865 193.915 201.231 193.714C201.596 193.511 201.886 193.263 202.1 192.971C202.319 192.678 202.437 192.395 202.454 192.118L203.12 192.87C203.081 193.106 202.974 193.367 202.8 193.654C202.625 193.941 202.392 194.217 202.1 194.481C201.813 194.74 201.47 194.956 201.07 195.13C200.677 195.299 200.232 195.384 199.738 195.384C199.119 195.384 198.577 195.263 198.11 195.021C197.649 194.779 197.289 194.456 197.03 194.051C196.778 193.64 196.651 193.182 196.651 192.675C196.651 192.186 196.746 191.755 196.938 191.385C197.129 191.008 197.404 190.696 197.764 190.448C198.124 190.196 198.557 190.004 199.064 189.875C199.569 189.745 200.135 189.68 200.758 189.68H202.572ZM209.793 186.086V187.284H204.858V186.086H209.793ZM206.528 183.868H208.088V192.954C208.088 193.263 208.136 193.497 208.232 193.654C208.327 193.812 208.451 193.915 208.603 193.966C208.754 194.017 208.918 194.042 209.092 194.042C209.222 194.042 209.356 194.031 209.497 194.008C209.643 193.98 209.753 193.957 209.826 193.941L209.834 195.215C209.711 195.254 209.548 195.291 209.346 195.324C209.149 195.364 208.91 195.384 208.629 195.384C208.246 195.384 207.895 195.308 207.574 195.155C207.253 195.004 206.997 194.751 206.806 194.396C206.621 194.036 206.528 193.553 206.528 192.946V183.868ZM212.972 186.086V195.215H211.404V186.086H212.972ZM211.286 183.665C211.286 183.412 211.362 183.198 211.514 183.024C211.671 182.85 211.901 182.762 212.205 182.762C212.503 182.762 212.73 182.85 212.888 183.024C213.051 183.198 213.132 183.412 213.132 183.665C213.132 183.907 213.051 184.116 212.888 184.289C212.73 184.458 212.503 184.543 212.205 184.543C211.901 184.543 211.671 184.458 211.514 184.289C211.362 184.116 211.286 183.907 211.286 183.665ZM214.719 190.752V190.557C214.719 189.9 214.815 189.289 215.006 188.727C215.197 188.159 215.472 187.667 215.832 187.251C216.192 186.829 216.628 186.503 217.14 186.273C217.652 186.036 218.225 185.917 218.86 185.917C219.501 185.917 220.078 186.036 220.589 186.273C221.106 186.503 221.545 186.829 221.905 187.251C222.271 187.667 222.549 188.159 222.74 188.727C222.932 189.289 223.027 189.9 223.027 190.557V190.752C223.027 191.41 222.932 192.02 222.74 192.583C222.549 193.145 222.271 193.637 221.905 194.059C221.545 194.475 221.109 194.801 220.598 195.037C220.092 195.269 219.518 195.384 218.877 195.384C218.236 195.384 217.66 195.269 217.148 195.037C216.636 194.801 216.198 194.475 215.832 194.059C215.472 193.637 215.197 193.145 215.006 192.583C214.815 192.02 214.719 191.41 214.719 190.752ZM216.279 190.557V190.752C216.279 191.207 216.333 191.637 216.44 192.042C216.546 192.442 216.706 192.796 216.92 193.106C217.14 193.415 217.413 193.66 217.739 193.839C218.064 194.014 218.444 194.101 218.877 194.101C219.304 194.101 219.678 194.014 219.999 193.839C220.325 193.66 220.595 193.415 220.809 193.106C221.022 192.796 221.182 192.442 221.29 192.042C221.402 191.637 221.459 191.207 221.459 190.752V190.557C221.459 190.108 221.402 189.683 221.29 189.284C221.182 188.879 221.019 188.522 220.8 188.212C220.586 187.898 220.317 187.65 219.99 187.47C219.67 187.29 219.294 187.2 218.86 187.2C218.433 187.2 218.057 187.29 217.73 187.47C217.41 187.65 217.14 187.898 216.92 188.212C216.706 188.522 216.546 188.879 216.44 189.284C216.333 189.683 216.279 190.108 216.279 190.557ZM226.199 188.036V195.215H224.638V186.086H226.114L226.199 188.036ZM225.828 190.305L225.178 190.279C225.184 189.655 225.276 189.078 225.457 188.55C225.636 188.016 225.889 187.552 226.216 187.158C226.542 186.764 226.93 186.461 227.38 186.247C227.835 186.028 228.339 185.917 228.889 185.917C229.34 185.917 229.745 185.98 230.104 186.104C230.464 186.222 230.77 186.413 231.024 186.677C231.282 186.942 231.479 187.284 231.614 187.707C231.749 188.122 231.816 188.632 231.816 189.234V195.215H230.247V189.217C230.247 188.738 230.177 188.355 230.036 188.069C229.896 187.777 229.691 187.565 229.421 187.436C229.15 187.302 228.819 187.234 228.426 187.234C228.037 187.234 227.683 187.316 227.363 187.478C227.048 187.641 226.775 187.867 226.545 188.154C226.319 188.44 226.143 188.769 226.013 189.141C225.889 189.506 225.828 189.894 225.828 190.305ZM233.773 194.388C233.773 194.124 233.855 193.902 234.018 193.721C234.187 193.536 234.429 193.443 234.743 193.443C235.058 193.443 235.297 193.536 235.46 193.721C235.629 193.902 235.714 194.124 235.714 194.388C235.714 194.647 235.629 194.866 235.46 195.046C235.297 195.226 235.058 195.316 234.743 195.316C234.429 195.316 234.187 195.226 234.018 195.046C233.855 194.866 233.773 194.647 233.773 194.388ZM233.782 186.939C233.782 186.675 233.863 186.452 234.027 186.273C234.195 186.086 234.437 185.994 234.752 185.994C235.067 185.994 235.306 186.086 235.469 186.273C235.638 186.452 235.722 186.675 235.722 186.939C235.722 187.197 235.638 187.417 235.469 187.596C235.306 187.777 235.067 187.867 234.752 187.867C234.437 187.867 234.195 187.777 234.027 187.596C233.863 187.417 233.782 187.197 233.782 186.939ZM241.559 190.305V190.221C241.559 188.995 241.697 187.886 241.973 186.896C242.248 185.901 242.599 185.029 243.027 184.281C243.454 183.533 243.905 182.915 244.377 182.425C244.849 181.93 245.285 181.573 245.684 181.354L246.013 182.383C245.681 182.636 245.344 182.985 245 183.429C244.664 183.874 244.351 184.419 244.065 185.066C243.784 185.713 243.555 186.464 243.382 187.318C243.207 188.173 243.12 189.135 243.12 190.203V190.321C243.12 191.391 243.207 192.355 243.382 193.215C243.555 194.071 243.784 194.824 244.065 195.476C244.351 196.129 244.664 196.683 245 197.139C245.344 197.599 245.681 197.965 246.013 198.235L245.684 199.18C245.285 198.96 244.849 198.603 244.377 198.109C243.905 197.619 243.454 197 243.027 196.253C242.599 195.511 242.248 194.641 241.973 193.645C241.697 192.65 241.559 191.537 241.559 190.305ZM246.781 190.752V190.557C246.781 189.9 246.877 189.289 247.068 188.727C247.259 188.159 247.534 187.667 247.894 187.251C248.254 186.829 248.689 186.503 249.202 186.273C249.713 186.036 250.286 185.917 250.922 185.917C251.563 185.917 252.14 186.036 252.651 186.273C253.168 186.503 253.607 186.829 253.967 187.251C254.332 187.667 254.611 188.159 254.802 188.727C254.994 189.289 255.089 189.9 255.089 190.557V190.752C255.089 191.41 254.994 192.02 254.802 192.583C254.611 193.145 254.332 193.637 253.967 194.059C253.607 194.475 253.171 194.801 252.66 195.037C252.154 195.269 251.58 195.384 250.939 195.384C250.298 195.384 249.721 195.269 249.21 195.037C248.698 194.801 248.26 194.475 247.894 194.059C247.534 193.637 247.259 193.145 247.068 192.583C246.877 192.02 246.781 191.41 246.781 190.752ZM248.341 190.557V190.752C248.341 191.207 248.395 191.637 248.501 192.042C248.608 192.442 248.768 192.796 248.982 193.106C249.202 193.415 249.475 193.66 249.801 193.839C250.126 194.014 250.506 194.101 250.939 194.101C251.366 194.101 251.74 194.014 252.061 193.839C252.387 193.66 252.657 193.415 252.871 193.106C253.084 192.796 253.244 192.442 253.352 192.042C253.464 191.637 253.521 191.207 253.521 190.752V190.557C253.521 190.108 253.464 189.683 253.352 189.284C253.244 188.879 253.081 188.522 252.862 188.212C252.648 187.898 252.378 187.65 252.052 187.47C251.732 187.29 251.355 187.2 250.922 187.2C250.495 187.2 250.118 187.29 249.792 187.47C249.472 187.65 249.202 187.898 248.982 188.212C248.768 188.522 248.608 188.879 248.501 189.284C248.395 189.683 248.341 190.108 248.341 190.557ZM258.26 187.841V198.724H256.692V186.086H258.126L258.26 187.841ZM264.41 190.575V190.752C264.41 191.416 264.331 192.032 264.173 192.599C264.016 193.162 263.785 193.651 263.482 194.068C263.184 194.483 262.815 194.807 262.376 195.037C261.938 195.269 261.435 195.384 260.867 195.384C260.288 195.384 259.776 195.288 259.332 195.097C258.888 194.906 258.511 194.627 258.202 194.262C257.893 193.896 257.645 193.457 257.459 192.946C257.28 192.434 257.156 191.857 257.089 191.216V190.271C257.156 189.596 257.282 188.992 257.468 188.457C257.653 187.923 257.898 187.468 258.202 187.09C258.511 186.708 258.885 186.418 259.324 186.222C259.762 186.019 260.268 185.917 260.842 185.917C261.415 185.917 261.924 186.031 262.369 186.255C262.812 186.475 263.186 186.79 263.491 187.2C263.794 187.611 264.021 188.103 264.173 188.676C264.331 189.244 264.41 189.877 264.41 190.575ZM262.841 190.752V190.575C262.841 190.119 262.793 189.692 262.697 189.292C262.602 188.887 262.452 188.533 262.251 188.23C262.053 187.92 261.801 187.678 261.492 187.504C261.182 187.324 260.813 187.234 260.386 187.234C259.993 187.234 259.65 187.302 259.357 187.436C259.07 187.571 258.826 187.755 258.623 187.985C258.421 188.21 258.255 188.469 258.126 188.761C258.002 189.048 257.909 189.346 257.848 189.655V191.84C257.96 192.234 258.117 192.605 258.32 192.954C258.522 193.297 258.792 193.575 259.13 193.789C259.467 193.997 259.892 194.101 260.403 194.101C260.825 194.101 261.187 194.014 261.492 193.839C261.801 193.66 262.053 193.415 262.251 193.106C262.452 192.796 262.602 192.442 262.697 192.042C262.793 191.637 262.841 191.207 262.841 190.752ZM269.875 186.086V187.284H264.942V186.086H269.875ZM266.611 183.868H268.172V192.954C268.172 193.263 268.22 193.497 268.315 193.654C268.411 193.812 268.535 193.915 268.686 193.966C268.838 194.017 269.001 194.042 269.176 194.042C269.304 194.042 269.44 194.031 269.581 194.008C269.727 193.98 269.836 193.957 269.909 193.941L269.918 195.215C269.794 195.254 269.631 195.291 269.428 195.324C269.231 195.364 268.992 195.384 268.711 195.384C268.329 195.384 267.978 195.308 267.658 195.155C267.337 195.004 267.081 194.751 266.89 194.396C266.705 194.036 266.611 193.553 266.611 192.946V183.868ZM273.056 186.086V195.215H271.487V186.086H273.056ZM271.369 183.665C271.369 183.412 271.444 183.198 271.597 183.024C271.754 182.85 271.985 182.762 272.288 182.762C272.586 182.762 272.814 182.85 272.971 183.024C273.134 183.198 273.216 183.412 273.216 183.665C273.216 183.907 273.134 184.116 272.971 184.289C272.814 184.458 272.586 184.543 272.288 184.543C271.985 184.543 271.754 184.458 271.597 184.289C271.444 184.116 271.369 183.907 271.369 183.665ZM274.802 190.752V190.557C274.802 189.9 274.897 189.289 275.089 188.727C275.28 188.159 275.556 187.667 275.916 187.251C276.275 186.829 276.711 186.503 277.223 186.273C277.734 186.036 278.308 185.917 278.943 185.917C279.584 185.917 280.161 186.036 280.673 186.273C281.19 186.503 281.628 186.829 281.988 187.251C282.354 187.667 282.632 188.159 282.823 188.727C283.014 189.289 283.11 189.9 283.11 190.557V190.752C283.11 191.41 283.014 192.02 282.823 192.583C282.632 193.145 282.354 193.637 281.988 194.059C281.628 194.475 281.193 194.801 280.681 195.037C280.175 195.269 279.602 195.384 278.961 195.384C278.32 195.384 277.743 195.269 277.231 195.037C276.72 194.801 276.281 194.475 275.916 194.059C275.556 193.637 275.28 193.145 275.089 192.583C274.897 192.02 274.802 191.41 274.802 190.752ZM276.363 190.557V190.752C276.363 191.207 276.416 191.637 276.523 192.042C276.63 192.442 276.79 192.796 277.004 193.106C277.223 193.415 277.495 193.66 277.821 193.839C278.148 194.014 278.528 194.101 278.961 194.101C279.388 194.101 279.762 194.014 280.082 193.839C280.409 193.66 280.678 193.415 280.891 193.106C281.105 192.796 281.266 192.442 281.372 192.042C281.486 191.637 281.541 191.207 281.541 190.752V190.557C281.541 190.108 281.486 189.683 281.372 189.284C281.266 188.879 281.103 188.522 280.884 188.212C280.67 187.898 280.4 187.65 280.074 187.47C279.753 187.29 279.376 187.2 278.943 187.2C278.516 187.2 278.139 187.29 277.813 187.47C277.492 187.65 277.223 187.898 277.004 188.212C276.79 188.522 276.63 188.879 276.523 189.284C276.416 189.683 276.363 190.108 276.363 190.557ZM286.282 188.036V195.215H284.722V186.086H286.198L286.282 188.036ZM285.911 190.305L285.262 190.279C285.267 189.655 285.36 189.078 285.54 188.55C285.72 188.016 285.973 187.552 286.299 187.158C286.625 186.764 287.013 186.461 287.462 186.247C287.918 186.028 288.421 185.917 288.973 185.917C289.422 185.917 289.827 185.98 290.187 186.104C290.547 186.222 290.854 186.413 291.106 186.677C291.365 186.942 291.562 187.284 291.697 187.707C291.832 188.122 291.899 188.632 291.899 189.234V195.215H290.331V189.217C290.331 188.738 290.26 188.355 290.12 188.069C289.98 187.777 289.774 187.565 289.504 187.436C289.234 187.302 288.902 187.234 288.508 187.234C288.121 187.234 287.767 187.316 287.446 187.478C287.131 187.641 286.859 187.867 286.627 188.154C286.403 188.44 286.225 188.769 286.097 189.141C285.973 189.506 285.911 189.894 285.911 190.305ZM299.306 193.654V188.955C299.306 188.595 299.232 188.283 299.086 188.019C298.946 187.749 298.732 187.541 298.445 187.395C298.158 187.248 297.804 187.175 297.383 187.175C296.989 187.175 296.643 187.242 296.345 187.377C296.052 187.513 295.822 187.689 295.653 187.909C295.49 188.128 295.408 188.364 295.408 188.618H293.848C293.848 188.291 293.932 187.968 294.101 187.647C294.27 187.326 294.512 187.037 294.827 186.778C295.147 186.514 295.529 186.306 295.974 186.154C296.424 185.996 296.924 185.917 297.475 185.917C298.139 185.917 298.723 186.031 299.23 186.255C299.741 186.48 300.141 186.821 300.428 187.276C300.719 187.726 300.866 188.291 300.866 188.972V193.224C300.866 193.527 300.891 193.851 300.942 194.195C300.998 194.537 301.079 194.833 301.187 195.08V195.215H299.558C299.479 195.034 299.418 194.795 299.373 194.498C299.328 194.195 299.306 193.913 299.306 193.654ZM299.575 189.68L299.592 190.777H298.015C297.571 190.777 297.174 190.814 296.826 190.887C296.477 190.955 296.185 191.059 295.949 191.199C295.713 191.34 295.532 191.516 295.408 191.73C295.285 191.939 295.223 192.184 295.223 192.465C295.223 192.752 295.288 193.013 295.417 193.249C295.547 193.485 295.741 193.674 295.999 193.814C296.264 193.95 296.587 194.017 296.969 194.017C297.447 194.017 297.869 193.915 298.234 193.714C298.599 193.511 298.889 193.263 299.103 192.971C299.322 192.678 299.44 192.395 299.457 192.118L300.123 192.87C300.084 193.106 299.978 193.367 299.803 193.654C299.629 193.941 299.395 194.217 299.103 194.481C298.816 194.74 298.473 194.956 298.074 195.13C297.68 195.299 297.236 195.384 296.741 195.384C296.122 195.384 295.58 195.263 295.113 195.021C294.652 194.779 294.292 194.456 294.033 194.051C293.781 193.64 293.654 193.182 293.654 192.675C293.654 192.186 293.75 191.755 293.941 191.385C294.132 191.008 294.408 190.696 294.767 190.448C295.127 190.196 295.56 190.004 296.067 189.875C296.573 189.745 297.138 189.68 297.762 189.68H299.575ZM304.67 182.256V195.215H303.101V182.256H304.67ZM310.423 190.221V190.305C310.423 191.537 310.285 192.65 310.01 193.645C309.735 194.641 309.382 195.511 308.955 196.253C308.528 197 308.078 197.619 307.606 198.109C307.134 198.603 306.698 198.96 306.298 199.18L305.97 198.235C306.301 197.982 306.636 197.628 306.974 197.172C307.31 196.722 307.622 196.165 307.909 195.502C308.196 194.843 308.427 194.084 308.601 193.224C308.776 192.357 308.862 191.391 308.862 190.321V190.203C308.862 189.135 308.77 188.17 308.584 187.31C308.399 186.443 308.157 185.681 307.858 185.024C307.567 184.365 307.252 183.811 306.914 183.361C306.582 182.906 306.267 182.555 305.97 182.307L306.298 181.354C306.698 181.573 307.134 181.93 307.606 182.425C308.078 182.915 308.528 183.533 308.955 184.281C309.382 185.029 309.735 185.901 310.01 186.896C310.285 187.886 310.423 188.995 310.423 190.221Z" fill="#1D1D1D"/>
<path d="M526.576 214.413H75.5279C63.8676 214.413 54.415 223.868 54.415 235.531V291.205C54.415 302.868 63.8676 312.322 75.5279 312.322H526.576C538.237 312.322 547.689 302.868 547.689 291.205V235.531C547.689 223.868 538.237 214.413 526.576 214.413Z" fill="#F0F0F0"/>
</g>
</g>
<g filter="url(#filter2_d_0_1)">
<path fill-rule="evenodd" clip-rule="evenodd" d="M211.244 151.033L219.583 150.48L202.525 134.741L201.921 157.275L208.301 152.165L211.631 159.911L214.574 158.778L211.244 151.033Z" fill="#363B3E"/>
<path d="M219.596 150.953L220.734 150.877L219.924 150.129L202.867 134.391L202.069 133.655L202.04 134.748L201.435 157.281L201.408 158.285L202.22 157.636L208.095 152.93L211.182 160.108L211.357 160.518L211.793 160.35L214.736 159.218L215.218 159.033L215.023 158.58L211.962 151.459L219.596 150.953Z" stroke="white" stroke-opacity="0.8"/>
</g>
<defs>
<filter id="filter0_d_0_1" x="0.104492" y="0.273193" width="601.896" height="372.605" filterUnits="userSpaceOnUse" color-interpolation-filters="sRGB">
<feFlood flood-opacity="0" result="BackgroundImageFix"/>
<feColorMatrix in="SourceAlpha" type="matrix" values="0 0 0 0 0 0 0 0 0 0 0 0 0 0 0 0 0 0 127 0" result="hardAlpha"/>
<feOffset/>
<feGaussianBlur stdDeviation="13"/>
<feComposite in2="hardAlpha" operator="out"/>
<feColorMatrix type="matrix" values="0 0 0 0 0 0 0 0 0 0 0 0 0 0 0 0 0 0 0.25 0"/>
<feBlend mode="normal" in2="BackgroundImageFix" result="effect1_dropShadow_0_1"/>
<feBlend mode="normal" in="SourceGraphic" in2="effect1_dropShadow_0_1" result="shape"/>
</filter>
<filter id="filter1_d_0_1" x="168.981" y="86.155" width="132.665" height="76.0549" filterUnits="userSpaceOnUse" color-interpolation-filters="sRGB">
<feFlood flood-opacity="0" result="BackgroundImageFix"/>
<feColorMatrix in="SourceAlpha" type="matrix" values="0 0 0 0 0 0 0 0 0 0 0 0 0 0 0 0 0 0 127 0" result="hardAlpha"/>
<feOffset/>
<feGaussianBlur stdDeviation="7"/>
<feComposite in2="hardAlpha" operator="out"/>
<feColorMatrix type="matrix" values="0 0 0 0 0 0 0 0 0 0 0 0 0 0 0 0 0 0 0.1 0"/>
<feBlend mode="normal" in2="BackgroundImageFix" result="effect1_dropShadow_0_1"/>
<feBlend mode="normal" in="SourceGraphic" in2="effect1_dropShadow_0_1" result="shape"/>
</filter>
<filter id="filter2_d_0_1" x="197.88" y="130.54" width="27.0479" height="34.6179" filterUnits="userSpaceOnUse" color-interpolation-filters="sRGB">
<feFlood flood-opacity="0" result="BackgroundImageFix"/>
<feColorMatrix in="SourceAlpha" type="matrix" values="0 0 0 0 0 0 0 0 0 0 0 0 0 0 0 0 0 0 127 0" result="hardAlpha"/>
<feOffset dy="1"/>
<feGaussianBlur stdDeviation="1.5"/>
<feColorMatrix type="matrix" values="0 0 0 0 0 0 0 0 0 0 0 0 0 0 0 0 0 0 0.25 0"/>
<feBlend mode="normal" in2="BackgroundImageFix" result="effect1_dropShadow_0_1"/>
<feBlend mode="normal" in="SourceGraphic" in2="effect1_dropShadow_0_1" result="shape"/>
</filter>
</defs>
</svg>
