<svg width="74" height="228" viewBox="0 0 74 228" fill="none" xmlns="http://www.w3.org/2000/svg">
    <path d="M66.3354 2.10346C61.4576 4.20467 53.7402 9.10685 53.7402 10.1579C53.7402 12.1708 56.2885 11.5584 61.1663 8.4071C64.0785 6.48059 67.7915 4.46767 69.3932 3.8543C73.3247 2.36646 73.7615 2.0161 72.5965 1.14068C71.2861 0.0905502 70.7765 0.177906 66.3354 2.10346Z" fill="#06ACA2"/>
    <path d="M42.091 19.263C39.106 21.6263 33.3545 28.6297 33.3545 29.8555C33.3545 32.5691 36.7035 30.6436 41.7998 25.0406C44.712 21.801 47.1874 18.9127 47.1874 18.475C47.1874 17.3365 43.9111 17.8616 42.091 19.263Z" fill="#06ACA2"/>
    <path d="M18.5028 50.6034C17.0467 53.6674 15.8818 56.4684 15.8818 56.8187C15.8818 57.0817 16.7555 57.2564 17.8475 57.0817C19.3037 56.9061 20.3958 55.6803 22.1431 52.0039C25.0552 46.2263 25.2008 45.0005 22.8711 45.0005C21.4878 45.0005 20.6141 46.1389 18.5028 50.6034Z" fill="#06ACA2"/>
    <path d="M7.72761 79.3177C6.56274 80.4551 4.88824 85.6203 3.86899 91.2232C3.50496 93.4118 3.65058 94.1125 4.59703 94.5502C6.34433 95.4257 7.3636 93.4992 9.2565 86.321C11.1494 78.8799 10.7126 76.6031 7.72761 79.3177Z" fill="#06ACA2"/>
    <path d="M2.04805 111.971C1.32001 113.022 1.2472 115.735 1.53842 122.739C2.12085 134.469 2.48488 136.046 4.59621 136.046C6.2707 136.046 6.2707 136.046 5.90668 124.402C5.76107 118.099 5.46986 112.322 5.32425 111.708C4.88742 110.221 3.14012 110.395 2.04805 111.971Z" fill="#06ACA2"/>
    <path d="M45.8761 125.715C46.0946 126.328 46.8226 127.029 47.6234 127.116C48.3514 127.292 50.8997 128.429 53.2294 129.655C56.5055 131.493 57.5976 131.756 58.3257 130.881C58.9809 130.005 58.9081 129.567 57.7432 128.779C52.7197 125.19 45.2209 123.264 45.8761 125.715Z" fill="#06ACA2"/>
    <path d="M29.4959 131.143C25.5645 133.507 21.5602 137.621 22.1427 138.847C22.9435 140.335 25.6372 139.46 28.1126 136.834C29.4959 135.345 32.1169 133.419 33.7913 132.457C35.5386 131.581 36.9947 130.443 36.9947 129.918C36.9947 128.342 33.1361 129.042 29.4959 131.143Z" fill="#06ACA2"/>
    <path d="M61.3837 136.921C61.1653 137.359 61.1653 138.234 61.3837 138.672C62.4029 140.597 61.8205 146.638 60.4372 149.527C58.9083 152.591 58.9083 152.591 60.3644 153.116C63.5678 154.342 66.6255 147.601 65.8975 141.035C65.5335 137.622 64.5142 136.045 62.6941 136.045C62.2573 136.045 61.6021 136.396 61.3837 136.921Z" fill="#06ACA2"/>
    <path d="M8.30922 150.841C7.65398 152.066 10.5662 160.908 12.2406 162.746C13.7695 164.41 16.3177 163.885 15.6625 162.045C15.444 161.52 14.4248 158.632 13.4055 155.743C12.1678 152.154 11.1486 150.403 10.2021 150.227C9.40129 150.052 8.52764 150.315 8.30922 150.841Z" fill="#06ACA2"/>
    <path d="M54.4682 164.147C52.6481 166.073 49.5176 168.262 47.3334 169.05C45.2221 169.837 43.6204 170.976 43.766 171.413C44.2029 172.814 48.3527 172.201 51.9201 170.275C55.0507 168.612 61.0206 162.746 61.0206 161.346C61.0206 159.419 57.4532 160.908 54.4682 164.147Z" fill="#06ACA2"/>
    <path d="M21.4887 168.174C20.3966 169.4 21.1247 170.363 24.9105 172.464C29.4971 175.002 36.6319 175.79 36.6319 173.777C36.6319 172.989 35.103 172.114 32.118 171.413C29.5699 170.801 26.8034 169.662 25.9297 168.962C24.1824 167.474 22.2895 167.123 21.4887 168.174Z" fill="#06ACA2"/>
    <path d="M4.66983 170.45C3.28655 172.901 1.68485 178.329 1.02961 182.706C0.51998 185.945 0.592785 186.033 2.4857 185.77C4.1602 185.507 4.59702 184.895 5.39787 180.955C5.9803 178.417 7.07237 174.74 7.87321 172.814C9.69331 168.524 9.69331 168.437 7.50919 168.437C6.48993 168.437 5.25225 169.225 4.66983 170.45Z" fill="#06ACA2"/>
    <path d="M0.6656 205.118C-1.15451 206.518 1.02962 220.525 3.94179 225.952C4.59703 227.178 5.68909 227.966 6.78116 227.966C7.80042 227.966 8.60126 227.792 8.60126 227.616C8.60126 227.441 7.72761 224.99 6.70836 222.189C5.68909 219.299 4.59703 214.659 4.45143 211.771C3.94179 205.029 2.99534 203.367 0.6656 205.118Z" fill="#06ACA2"/>
    </svg>
    