<svg width="33" height="33" viewBox="0 0 33 33" fill="none" xmlns="http://www.w3.org/2000/svg">
<g id="linkedin-icon-2 1" opacity="0.8" clip-path="url(#clip0_285_42)">
<g id="Group">
<path id="Vector" d="M0 2.42047C0 1.1209 1.09235 0.06604 2.43891 0.06604H30.5611C31.9082 0.06604 33 1.1209 33 2.42047V30.58C33 31.88 31.9082 32.934 30.5611 32.934H2.43891C1.09248 32.934 0 31.8801 0 30.5804V2.42008V2.42047Z" fill="#006699"/>
<path id="Vector_2" d="M10.028 27.5722V12.775H5.0899V27.5722H10.0286H10.028ZM7.56 10.755C9.28167 10.755 10.3535 9.61874 10.3535 8.19874C10.3213 6.74639 9.28167 5.64185 7.59274 5.64185C5.90265 5.64185 4.79883 6.74639 4.79883 8.19862C4.79883 9.61862 5.8703 10.7549 7.52764 10.7549H7.55961L7.56 10.755ZM12.7614 27.5722H17.6991V19.3097C17.6991 18.868 17.7313 18.4252 17.8618 18.1097C18.2186 17.2258 19.0311 16.3107 20.3956 16.3107C22.182 16.3107 22.897 17.6676 22.897 19.657V27.5722H27.8346V19.0879C27.8346 14.543 25.3988 12.4281 22.15 12.4281C19.4864 12.4281 18.3166 13.9108 17.6666 14.9208H17.6995V12.7755H12.7616C12.8261 14.1636 12.7612 27.5728 12.7612 27.5728L12.7614 27.5722Z" fill="white"/>
</g>
</g>
<defs>
<clipPath id="clip0_285_42">
<rect width="33" height="33" fill="white"/>
</clipPath>
</defs>
</svg>
