<svg width="93" height="93" viewBox="0 0 93 93" fill="none" xmlns="http://www.w3.org/2000/svg">
<g id="Frame 41">
<rect width="93" height="93" rx="46.5" fill="url(#paint0_linear_117_968)"/>
<g id="Group">
<path id="Vector" d="M13.3222 22.6924C11.8036 28.3094 11.5224 33.5125 12.3942 38.893C13.0691 43.0614 13.8565 45.5742 15.5437 49.2401C19.3963 57.5177 26.4547 64.0808 35.1441 67.4214C36.1002 67.7761 36.8876 68.19 36.8876 68.2787C36.8876 68.4857 36.1283 70.7916 34.2723 76.3494L33.5974 78.3597H46.505C58.5126 78.3597 59.4406 78.3302 59.2719 77.8572C59.1594 77.5911 58.5408 75.6991 57.8659 73.6592C57.191 71.6194 56.4879 69.5499 56.3192 69.0769C56.1505 68.6039 56.038 68.19 56.0661 68.1605C56.1224 68.1013 57.444 67.5396 59.0469 66.8597C70.2391 62.2183 77.5224 53.2311 80.3908 40.519C81.1219 37.3261 81.1219 28.5755 80.3908 25.4418C79.7159 22.5446 79.0691 20.416 78.8723 20.416C78.7879 20.416 74.5979 23.2837 69.5642 26.8017L60.3967 33.1873L59.8906 32.5369C59.6094 32.1822 59.3844 31.7091 59.3844 31.5318C59.3844 31.3248 59.0751 30.7336 58.6814 30.1719C58.2877 29.6102 58.0908 29.0485 58.2033 28.9302C58.3439 28.7824 59.1875 28.5755 60.1155 28.4572C61.6622 28.2798 61.7747 28.1911 61.859 27.4225C61.9153 26.8608 61.8028 26.5652 61.4653 26.4174C61.0154 26.24 57.7534 26.6834 56.7973 27.0677C56.5723 27.1564 55.9255 26.8312 55.335 26.3582C52.4104 23.9045 48.136 22.7515 44.3396 23.3428C42.0618 23.6975 39.2497 24.9392 37.5906 26.3287C37.0001 26.8312 36.3252 27.1564 36.0721 27.0973C34.8066 26.6834 32.9788 26.3287 32.0508 26.3287C31.0384 26.3287 30.9822 26.3582 30.9822 27.3338V28.3094L32.6413 28.4868C33.5693 28.5755 34.4411 28.7233 34.6098 28.812C34.9472 29.0485 32.7819 33.0099 32.3601 32.8917C32.2195 32.8621 28.1701 30.1127 23.4176 26.7721C18.637 23.4315 14.5595 20.6525 14.3345 20.5639C14.0533 20.4456 13.7721 20.9777 13.3222 22.6924ZM24.5987 31.4726L31.8258 36.5279V37.7105C31.8539 43.1501 34.0474 47.8506 37.8718 50.7478C40.5152 52.7285 43.0742 53.5859 46.3081 53.5859C49.2046 53.5859 50.6669 53.2311 53.0009 52.019C55.0256 50.9843 56.6004 49.5948 58.0065 47.5845C59.9187 44.9239 60.7061 42.5292 60.931 38.8634C61.0154 37.6218 61.0998 36.5575 61.1279 36.5279C62.787 35.2272 76.7069 25.7374 76.96 25.7374C77.4662 25.7374 77.6349 26.8312 77.8318 31.2066C78.113 37.3557 77.3537 41.7902 75.1322 46.9046C72.3201 53.3198 68.0175 58.1681 61.7184 62.0409C60.0031 63.1052 55.5037 64.9085 53.479 65.3815C52.7197 65.5589 52.0729 65.825 52.0729 65.9728C52.0729 66.1206 52.7197 68.0422 53.479 70.289C54.2664 72.5358 54.885 74.5165 54.885 74.7235C54.885 75.0487 53.2259 75.1078 46.5331 75.0487C39.2779 74.96 38.153 74.9009 38.2093 74.5165C38.2093 74.28 38.8842 72.1811 39.6434 69.8751L41.0495 65.6772L40.1777 65.4998C35.9877 64.5833 31.3196 62.3957 27.8607 59.7054C20.1275 53.6745 15.5437 44.776 15.0376 34.8133C14.8969 31.8274 15.2344 27.1269 15.7125 25.8557C15.9093 25.3235 14.9251 24.7323 24.5987 31.4726ZM49.4858 26.8017C51.3137 27.3634 52.9166 28.2798 52.9166 28.7824C52.9166 28.9893 52.3823 29.5215 51.7636 30.024C50.2451 31.177 48.361 33.6307 47.433 35.641C47.0111 36.5279 46.5893 37.267 46.4768 37.267C46.3644 37.267 46.0269 36.7053 45.6895 35.9958C44.7896 34.0742 42.6524 31.2361 41.2463 30.1423C40.5714 29.5806 39.9809 28.9893 39.9809 28.812C39.9528 27.8659 43.6929 26.3878 46.2519 26.3582C47.1799 26.3287 48.614 26.5356 49.4858 26.8017ZM40.009 31.857C40.8245 32.6552 41.8088 33.6012 42.1462 34.0151C43.271 35.3454 44.7333 38.8043 45.0708 41.0215L45.4082 43.1796H46.4768C47.4892 43.1796 47.5736 43.1205 47.5736 42.3223C47.5736 40.5781 48.9515 36.8236 50.3575 34.7246C51.623 32.8325 54.1258 30.4675 54.8288 30.4675C55.2787 30.4675 56.6567 32.7143 57.3034 34.4585C57.6971 35.5524 57.8377 36.6462 57.8096 38.5974C57.8096 40.9328 57.6971 41.4945 56.9379 43.2388C55.4193 46.6976 53.029 48.8558 49.5139 50.0087C46.7299 50.9252 43.946 50.6 41.0214 49.0331C37.5625 47.2002 34.9191 42.6179 34.9191 38.4495C34.9191 35.4341 36.9438 30.4675 38.153 30.4675C38.3499 30.4675 39.1935 31.0883 40.009 31.857Z" fill="white"/>
<path id="Vector_2" d="M38.8838 36.4983C38.6869 36.7348 38.5744 37.2965 38.6307 37.7695C38.7151 38.5086 38.8275 38.5973 39.8399 38.5973C40.8522 38.5973 40.9647 38.5086 41.0491 37.7695C41.1616 36.7644 40.6835 36.0844 39.8399 36.0844C39.5024 36.0844 39.0525 36.2618 38.8838 36.4983Z" fill="white"/>
<path id="Vector_3" d="M52.1016 36.4983C51.9047 36.7348 51.7922 37.2965 51.8485 37.7695C51.9328 38.5086 52.0453 38.5973 52.8889 38.5973C54.0981 38.5973 54.5762 37.9173 54.0981 36.8531C53.7326 35.9957 52.6359 35.8184 52.1016 36.4983Z" fill="white"/>
</g>
</g>
<defs>
<linearGradient id="paint0_linear_117_968" x1="86.304" y1="4.464" x2="6.417" y2="86.676" gradientUnits="userSpaceOnUse">
<stop stop-color="#9AE200"/>
<stop offset="0.979167" stop-color="#0CD7CA"/>
</linearGradient>
</defs>
</svg>
