<svg width="32" height="32" viewBox="0 0 32 32" fill="none" xmlns="http://www.w3.org/2000/svg">
<g id="Group">
<path id="Vector" fill-rule="evenodd" clip-rule="evenodd" d="M31.5 16C31.5 24.5604 24.5604 31.5 16 31.5C7.43961 31.5 0.5 24.5604 0.5 16C0.5 7.43961 7.43961 0.5 16 0.5C24.5604 0.5 31.5 7.43961 31.5 16Z" fill="#FF6154"/>
<path id="Vector_2" fill-rule="evenodd" clip-rule="evenodd" d="M17.9328 16.4559L13.5928 16.4561V11.8061H17.9328C19.2018 11.8061 20.2305 12.8469 20.2305 14.1309C20.2305 15.415 19.2018 16.4559 17.9328 16.4559ZM17.9328 8.70593H10.5293V24.2059H13.5928V19.5561H17.9328C20.8937 19.5561 23.294 17.1271 23.294 14.1309C23.294 11.1348 20.8937 8.70593 17.9328 8.70593Z" fill="white"/>
</g>
</svg>
