<svg width="89" height="93" viewBox="0 0 89 93" fill="none" xmlns="http://www.w3.org/2000/svg">
    <path d="M4.21422 7.80175C6.25738 7.80175 7.91282 6.05522 7.91282 3.90083C7.91282 1.74644 6.25738 0 4.21422 0C2.17203 0 0.515625 1.74644 0.515625 3.90083C0.515625 6.05522 2.17203 7.80175 4.21422 7.80175Z" fill="#06ACA2" fill-opacity="0.16"/>
    <path d="M20.3822 7.80175C22.4244 7.80175 24.0808 6.05522 24.0808 3.90083C24.0808 1.74644 22.4244 0 20.3822 0C18.339 0 16.6836 1.74644 16.6836 3.90083C16.6836 6.05522 18.339 7.80175 20.3822 7.80175Z" fill="#06ACA2" fill-opacity="0.16"/>
    <path d="M36.5482 7.80175C38.5914 7.80175 40.2468 6.05522 40.2468 3.90083C40.2468 1.74644 38.5914 0 36.5482 0C34.506 0 32.8496 1.74644 32.8496 3.90083C32.8496 6.05522 34.506 7.80175 36.5482 7.80175Z" fill="#06ACA2" fill-opacity="0.16"/>
    <path d="M52.7445 7.80175C54.7877 7.80175 56.4431 6.05522 56.4431 3.90083C56.4431 1.74644 54.7877 0 52.7445 0C50.7023 0 49.0459 1.74644 49.0459 3.90083C49.0459 6.05522 50.7023 7.80175 52.7445 7.80175Z" fill="#06ACA2" fill-opacity="0.16"/>
    <path d="M68.9115 7.80175C70.9546 7.80175 72.6101 6.05522 72.6101 3.90083C72.6101 1.74644 70.9546 0 68.9115 0C66.8693 0 65.2129 1.74644 65.2129 3.90083C65.2129 6.05522 66.8693 7.80175 68.9115 7.80175Z" fill="#06ACA2" fill-opacity="0.16"/>
    <path d="M85.1078 7.80175C87.15 7.80175 88.8064 6.05522 88.8064 3.90083C88.8064 1.74644 87.15 0 85.1078 0C83.0646 0 81.4092 1.74644 81.4092 3.90083C81.4092 6.05522 83.0646 7.80175 85.1078 7.80175Z" fill="#06ACA2" fill-opacity="0.16"/>
    <path d="M4.21422 21.8684C6.25738 21.8684 7.91282 20.122 7.91282 17.9676C7.91282 15.8132 6.25738 14.0667 4.21422 14.0667C2.17203 14.0667 0.515625 15.8132 0.515625 17.9676C0.515625 20.122 2.17203 21.8684 4.21422 21.8684Z" fill="#06ACA2" fill-opacity="0.16"/>
    <path d="M20.3822 21.8684C22.4244 21.8684 24.0808 20.122 24.0808 17.9676C24.0808 15.8132 22.4244 14.0667 20.3822 14.0667C18.339 14.0667 16.6836 15.8132 16.6836 17.9676C16.6836 20.122 18.339 21.8684 20.3822 21.8684Z" fill="#06ACA2" fill-opacity="0.16"/>
    <path d="M36.5482 21.869C38.5914 21.869 40.2468 20.1225 40.2468 17.9681C40.2468 15.8137 38.5914 14.0673 36.5482 14.0673C34.506 14.0673 32.8496 15.8137 32.8496 17.9681C32.8496 20.1225 34.506 21.869 36.5482 21.869Z" fill="#06ACA2" fill-opacity="0.16"/>
    <path d="M52.7445 21.8684C54.7877 21.8684 56.4431 20.122 56.4431 17.9676C56.4431 15.8132 54.7877 14.0667 52.7445 14.0667C50.7023 14.0667 49.0459 15.8132 49.0459 17.9676C49.0459 20.122 50.7023 21.8684 52.7445 21.8684Z" fill="#06ACA2" fill-opacity="0.16"/>
    <path d="M68.9115 21.869C70.9546 21.869 72.6101 20.1225 72.6101 17.9681C72.6101 15.8137 70.9546 14.0673 68.9115 14.0673C66.8693 14.0673 65.2129 15.8137 65.2129 17.9681C65.2129 20.1225 66.8693 21.869 68.9115 21.869Z" fill="#06ACA2" fill-opacity="0.16"/>
    <path d="M85.1078 21.8684C87.15 21.8684 88.8064 20.122 88.8064 17.9676C88.8064 15.8132 87.15 14.0667 85.1078 14.0667C83.0646 14.0667 81.4092 15.8132 81.4092 17.9676C81.4092 20.122 83.0646 21.8684 85.1078 21.8684Z" fill="#06ACA2" fill-opacity="0.16"/>
    <path d="M4.21422 35.9352C6.25738 35.9352 7.91282 34.1887 7.91282 32.0343C7.91282 29.88 6.25738 28.1334 4.21422 28.1334C2.17203 28.1334 0.515625 29.88 0.515625 32.0343C0.515625 34.1887 2.17203 35.9352 4.21422 35.9352Z" fill="#06ACA2" fill-opacity="0.16"/>
    <path d="M20.3822 35.9352C22.4244 35.9352 24.0808 34.1887 24.0808 32.0343C24.0808 29.88 22.4244 28.1334 20.3822 28.1334C18.339 28.1334 16.6836 29.88 16.6836 32.0343C16.6836 34.1887 18.339 35.9352 20.3822 35.9352Z" fill="#06ACA2" fill-opacity="0.16"/>
    <path d="M36.5482 35.9352C38.5914 35.9352 40.2468 34.1887 40.2468 32.0343C40.2468 29.88 38.5914 28.1334 36.5482 28.1334C34.506 28.1334 32.8496 29.88 32.8496 32.0343C32.8496 34.1887 34.506 35.9352 36.5482 35.9352Z" fill="#06ACA2" fill-opacity="0.16"/>
    <path d="M52.7445 35.9352C54.7877 35.9352 56.4431 34.1887 56.4431 32.0343C56.4431 29.88 54.7877 28.1334 52.7445 28.1334C50.7023 28.1334 49.0459 29.88 49.0459 32.0343C49.0459 34.1887 50.7023 35.9352 52.7445 35.9352Z" fill="#06ACA2" fill-opacity="0.16"/>
    <path d="M68.9115 35.9352C70.9546 35.9352 72.6101 34.1887 72.6101 32.0343C72.6101 29.88 70.9546 28.1334 68.9115 28.1334C66.8693 28.1334 65.2129 29.88 65.2129 32.0343C65.2129 34.1887 66.8693 35.9352 68.9115 35.9352Z" fill="#06ACA2" fill-opacity="0.16"/>
    <path d="M85.1078 35.9352C87.15 35.9352 88.8064 34.1887 88.8064 32.0343C88.8064 29.88 87.15 28.1334 85.1078 28.1334C83.0646 28.1334 81.4092 29.88 81.4092 32.0343C81.4092 34.1887 83.0646 35.9352 85.1078 35.9352Z" fill="#06ACA2" fill-opacity="0.16"/>
    <path d="M4.21422 50.0017C6.25738 50.0017 7.91282 48.2553 7.91282 46.1009C7.91282 43.9465 6.25738 42.2001 4.21422 42.2001C2.17203 42.2001 0.515625 43.9465 0.515625 46.1009C0.515625 48.2553 2.17203 50.0017 4.21422 50.0017Z" fill="#06ACA2" fill-opacity="0.16"/>
    <path d="M20.3822 50.0017C22.4244 50.0017 24.0808 48.2553 24.0808 46.1009C24.0808 43.9465 22.4244 42.2001 20.3822 42.2001C18.339 42.2001 16.6836 43.9465 16.6836 46.1009C16.6836 48.2553 18.339 50.0017 20.3822 50.0017Z" fill="#06ACA2" fill-opacity="0.16"/>
    <path d="M36.5482 50.0017C38.5914 50.0017 40.2468 48.2553 40.2468 46.1009C40.2468 43.9465 38.5914 42.2001 36.5482 42.2001C34.506 42.2001 32.8496 43.9465 32.8496 46.1009C32.8496 48.2553 34.506 50.0017 36.5482 50.0017Z" fill="#06ACA2" fill-opacity="0.16"/>
    <path d="M52.7445 50.0017C54.7877 50.0017 56.4431 48.2553 56.4431 46.1009C56.4431 43.9465 54.7877 42.2001 52.7445 42.2001C50.7023 42.2001 49.0459 43.9465 49.0459 46.1009C49.0459 48.2553 50.7023 50.0017 52.7445 50.0017Z" fill="#06ACA2" fill-opacity="0.16"/>
    <path d="M68.9115 50.0017C70.9546 50.0017 72.6101 48.2553 72.6101 46.1009C72.6101 43.9465 70.9546 42.2001 68.9115 42.2001C66.8693 42.2001 65.2129 43.9465 65.2129 46.1009C65.2129 48.2553 66.8693 50.0017 68.9115 50.0017Z" fill="#06ACA2" fill-opacity="0.16"/>
    <path d="M85.1078 50.0017C87.15 50.0017 88.8064 48.2553 88.8064 46.1009C88.8064 43.9465 87.15 42.2001 85.1078 42.2001C83.0646 42.2001 81.4092 43.9465 81.4092 46.1009C81.4092 48.2553 83.0646 50.0017 85.1078 50.0017Z" fill="#06ACA2" fill-opacity="0.16"/>
    <path d="M4.21422 64.0684C6.25738 64.0684 7.91282 62.3224 7.91282 60.1684C7.91282 58.0134 6.25738 56.2673 4.21422 56.2673C2.17203 56.2673 0.515625 58.0134 0.515625 60.1684C0.515625 62.3224 2.17203 64.0684 4.21422 64.0684Z" fill="#06ACA2" fill-opacity="0.16"/>
    <path d="M20.3822 64.0684C22.4244 64.0684 24.0808 62.3224 24.0808 60.1684C24.0808 58.0134 22.4244 56.2673 20.3822 56.2673C18.339 56.2673 16.6836 58.0134 16.6836 60.1684C16.6836 62.3224 18.339 64.0684 20.3822 64.0684Z" fill="#06ACA2" fill-opacity="0.16"/>
    <path d="M36.5482 64.0684C38.5914 64.0684 40.2468 62.3224 40.2468 60.1684C40.2468 58.0134 38.5914 56.2673 36.5482 56.2673C34.506 56.2673 32.8496 58.0134 32.8496 60.1684C32.8496 62.3224 34.506 64.0684 36.5482 64.0684Z" fill="#06ACA2" fill-opacity="0.16"/>
    <path d="M52.7445 64.0684C54.7877 64.0684 56.4431 62.3224 56.4431 60.1684C56.4431 58.0134 54.7877 56.2673 52.7445 56.2673C50.7023 56.2673 49.0459 58.0134 49.0459 60.1684C49.0459 62.3224 50.7023 64.0684 52.7445 64.0684Z" fill="#06ACA2" fill-opacity="0.16"/>
    <path d="M68.9115 64.0684C70.9546 64.0684 72.6101 62.3224 72.6101 60.1684C72.6101 58.0134 70.9546 56.2673 68.9115 56.2673C66.8693 56.2673 65.2129 58.0134 65.2129 60.1684C65.2129 62.3224 66.8693 64.0684 68.9115 64.0684Z" fill="#06ACA2" fill-opacity="0.16"/>
    <path d="M85.1078 64.0684C87.15 64.0684 88.8064 62.3224 88.8064 60.1684C88.8064 58.0134 87.15 56.2673 85.1078 56.2673C83.0646 56.2673 81.4092 58.0134 81.4092 60.1684C81.4092 62.3224 83.0646 64.0684 85.1078 64.0684Z" fill="#06ACA2" fill-opacity="0.16"/>
    <path d="M4.21422 78.1355C6.25738 78.1355 7.91282 76.3885 7.91282 74.2345C7.91282 72.0805 6.25738 70.3335 4.21422 70.3335C2.17203 70.3335 0.515625 72.0805 0.515625 74.2345C0.515625 76.3885 2.17203 78.1355 4.21422 78.1355Z" fill="#06ACA2" fill-opacity="0.16"/>
    <path d="M20.3822 78.1355C22.4244 78.1355 24.0808 76.3885 24.0808 74.2345C24.0808 72.0805 22.4244 70.3335 20.3822 70.3335C18.339 70.3335 16.6836 72.0805 16.6836 74.2345C16.6836 76.3885 18.339 78.1355 20.3822 78.1355Z" fill="#06ACA2" fill-opacity="0.16"/>
    <path d="M36.5482 78.1355C38.5914 78.1355 40.2468 76.3885 40.2468 74.2345C40.2468 72.0805 38.5914 70.3335 36.5482 70.3335C34.506 70.3335 32.8496 72.0805 32.8496 74.2345C32.8496 76.3885 34.506 78.1355 36.5482 78.1355Z" fill="#06ACA2" fill-opacity="0.16"/>
    <path d="M52.7445 78.1355C54.7877 78.1355 56.4431 76.3885 56.4431 74.2345C56.4431 72.0805 54.7877 70.3335 52.7445 70.3335C50.7023 70.3335 49.0459 72.0805 49.0459 74.2345C49.0459 76.3885 50.7023 78.1355 52.7445 78.1355Z" fill="#06ACA2" fill-opacity="0.16"/>
    <path d="M68.9115 78.1355C70.9546 78.1355 72.6101 76.3885 72.6101 74.2345C72.6101 72.0805 70.9546 70.3335 68.9115 70.3335C66.8693 70.3335 65.2129 72.0805 65.2129 74.2345C65.2129 76.3885 66.8693 78.1355 68.9115 78.1355Z" fill="#06ACA2" fill-opacity="0.16"/>
    <path d="M85.1078 78.1355C87.15 78.1355 88.8064 76.3885 88.8064 74.2345C88.8064 72.0805 87.15 70.3335 85.1078 70.3335C83.0646 70.3335 81.4092 72.0805 81.4092 74.2345C81.4092 76.3885 83.0646 78.1355 85.1078 78.1355Z" fill="#06ACA2" fill-opacity="0.16"/>
    <path d="M4.21422 92.2017C6.25738 92.2017 7.91282 90.4557 7.91282 88.3007C7.91282 86.1467 6.25738 84.4006 4.21422 84.4006C2.17203 84.4006 0.515625 86.1467 0.515625 88.3007C0.515625 90.4557 2.17203 92.2017 4.21422 92.2017Z" fill="#06ACA2" fill-opacity="0.16"/>
    <path d="M20.3822 92.2017C22.4244 92.2017 24.0808 90.4557 24.0808 88.3007C24.0808 86.1467 22.4244 84.4006 20.3822 84.4006C18.339 84.4006 16.6836 86.1467 16.6836 88.3007C16.6836 90.4557 18.339 92.2017 20.3822 92.2017Z" fill="#06ACA2" fill-opacity="0.16"/>
    <path d="M36.5482 92.2017C38.5914 92.2017 40.2468 90.4557 40.2468 88.3007C40.2468 86.1467 38.5914 84.4006 36.5482 84.4006C34.506 84.4006 32.8496 86.1467 32.8496 88.3007C32.8496 90.4557 34.506 92.2017 36.5482 92.2017Z" fill="#06ACA2" fill-opacity="0.16"/>
    <path d="M52.7445 92.2017C54.7877 92.2017 56.4431 90.4557 56.4431 88.3007C56.4431 86.1467 54.7877 84.4006 52.7445 84.4006C50.7023 84.4006 49.0459 86.1467 49.0459 88.3007C49.0459 90.4557 50.7023 92.2017 52.7445 92.2017Z" fill="#06ACA2" fill-opacity="0.16"/>
    <path d="M68.9115 92.2017C70.9546 92.2017 72.6101 90.4557 72.6101 88.3007C72.6101 86.1467 70.9546 84.4006 68.9115 84.4006C66.8693 84.4006 65.2129 86.1467 65.2129 88.3007C65.2129 90.4557 66.8693 92.2017 68.9115 92.2017Z" fill="#06ACA2" fill-opacity="0.16"/>
    <path d="M85.1078 92.2017C87.15 92.2017 88.8064 90.4557 88.8064 88.3007C88.8064 86.1467 87.15 84.4006 85.1078 84.4006C83.0646 84.4006 81.4092 86.1467 81.4092 88.3007C81.4092 90.4557 83.0646 92.2017 85.1078 92.2017Z" fill="#06ACA2" fill-opacity="0.16"/>
    </svg>
    